<svg xmlns="http://www.w3.org/2000/svg" width="30" height="30" viewBox="0 0 30 30"><defs><clipPath id="mfz3a"><path fill="#fff" d="M0 15C0 6.716 6.716 0 15 0c8.284 0 15 6.716 15 15 0 8.284-6.716 15-15 15-8.284 0-15-6.716-15-15z"/></clipPath></defs><g><g opacity="1"><g><path fill="none" stroke="#1c1c1c" stroke-miterlimit="20" stroke-width="4" d="M0 15C0 6.716 6.716 0 15 0c8.284 0 15 6.716 15 15 0 8.284-6.716 15-15 15-8.284 0-15-6.716-15-15z" clip-path="url(&quot;#mfz3a&quot;)"/></g><g><g opacity="1"><path fill="none" stroke="#2aabe3" stroke-linecap="round" stroke-miterlimit="20" stroke-width="2" d="M15 9v12"/></g><g opacity="1"><path fill="none" stroke="#2aabe3" stroke-linecap="round" stroke-miterlimit="20" stroke-width="2" d="M21 15H9"/></g></g></g></g></svg>
