<svg xmlns="http://www.w3.org/2000/svg" width="22" height="25" viewBox="0 0 22 25"><defs><clipPath id="i49na"><path fill="#fff" d="M0 4c0-.5.5-1 1-1h20c.5 0 1 .5 1 1v20c0 .5-.5 1-1 1H1c-.5 0-1-.5-1-1z"/></clipPath><clipPath id="i49nb"><path fill="#fff" d="M4 11V9h2v2z"/></clipPath><clipPath id="i49nc"><path fill="#fff" d="M4 16v-2h2v2z"/></clipPath><clipPath id="i49nd"><path fill="#fff" d="M4 21v-2h2v2z"/></clipPath><clipPath id="i49ne"><path fill="#fff" d="M10 11V9h2v2z"/></clipPath><clipPath id="i49nf"><path fill="#fff" d="M10 16v-2h2v2z"/></clipPath><clipPath id="i49ng"><path fill="#fff" d="M10 21v-2h2v2z"/></clipPath><clipPath id="i49nh"><path fill="#fff" d="M16 11V9h2v2z"/></clipPath><clipPath id="i49ni"><path fill="#fff" d="M16 16v-2h2v2z"/></clipPath><clipPath id="i49nj"><path fill="#fff" d="M16 21v-2h2v2z"/></clipPath></defs><g><g><g opacity="1"><path fill="#fff" d="M0 4c0-.5.5-1 1-1h20c.5 0 1 .5 1 1v20c0 .5-.5 1-1 1H1c-.5 0-1-.5-1-1z"/><path fill="none" stroke="#2aabe3" stroke-miterlimit="20" stroke-width="2" d="M0 4c0-.5.5-1 1-1h20c.5 0 1 .5 1 1v20c0 .5-.5 1-1 1H1c-.5 0-1-.5-1-1z" clip-path="url(&quot;#i49na&quot;)"/></g><g opacity="1"><path fill="none" stroke="#2aabe3" stroke-linecap="round" stroke-miterlimit="20" d="M5 1v4"/></g><g opacity="1"><path fill="none" stroke="#2aabe3" stroke-linecap="round" stroke-miterlimit="20" d="M11 1v4"/></g><g opacity="1"><path fill="none" stroke="#2aabe3" stroke-linecap="round" stroke-miterlimit="20" d="M17 1v4"/></g><g opacity="1"><path fill="#fff" d="M4 11V9h2v2z"/><path fill="none" stroke="#2aabe3" stroke-miterlimit="20" stroke-width="2" d="M4 11v0-2 0h2v2z" clip-path="url(&quot;#i49nb&quot;)"/></g><g opacity="1"><path fill="#fff" d="M4 16v-2h2v2z"/><path fill="none" stroke="#2aabe3" stroke-miterlimit="20" stroke-width="2" d="M4 16v0-2 0h2v2z" clip-path="url(&quot;#i49nc&quot;)"/></g><g opacity="1"><path fill="#fff" d="M4 21v-2h2v2z"/><path fill="none" stroke="#2aabe3" stroke-miterlimit="20" stroke-width="2" d="M4 21v0-2 0h2v2z" clip-path="url(&quot;#i49nd&quot;)"/></g><g opacity="1"><path fill="#fff" d="M10 11V9h2v2z"/><path fill="none" stroke="#2aabe3" stroke-miterlimit="20" stroke-width="2" d="M10 11v0-2 0h2v2z" clip-path="url(&quot;#i49ne&quot;)"/></g><g opacity="1"><path fill="#fff" d="M10 16v-2h2v2z"/><path fill="none" stroke="#2aabe3" stroke-miterlimit="20" stroke-width="2" d="M10 16v0-2 0h2v2z" clip-path="url(&quot;#i49nf&quot;)"/></g><g opacity="1"><path fill="#fff" d="M10 21v-2h2v2z"/><path fill="none" stroke="#2aabe3" stroke-miterlimit="20" stroke-width="2" d="M10 21v0-2 0h2v2z" clip-path="url(&quot;#i49ng&quot;)"/></g><g opacity="1"><path fill="#fff" d="M16 11V9h2v2z"/><path fill="none" stroke="#2aabe3" stroke-miterlimit="20" stroke-width="2" d="M16 11v0-2 0h2v2z" clip-path="url(&quot;#i49nh&quot;)"/></g><g opacity="1"><path fill="#fff" d="M16 16v-2h2v2z"/><path fill="none" stroke="#2aabe3" stroke-miterlimit="20" stroke-width="2" d="M16 16v0-2 0h2v2z" clip-path="url(&quot;#i49ni&quot;)"/></g><g opacity="1"><path fill="#fff" d="M16 21v-2h2v2z"/><path fill="none" stroke="#2aabe3" stroke-miterlimit="20" stroke-width="2" d="M16 21v0-2 0h2v2z" clip-path="url(&quot;#i49nj&quot;)"/></g></g></g></svg>