<svg xmlns="http://www.w3.org/2000/svg" width="49.629" height="62.801" viewBox="0 0 49.629 62.801">
  <g id="cyber-security_icon" data-name="cyber-security icon" transform="translate(-6.075 -1.499)">
    <path id="Path_724" data-name="Path 724" d="M137.149,14.155c6.14-2.77,10.679-6.345,13.124-10.34a.184.184,0,0,1,.318,0,24.857,24.857,0,0,0,8.621,7.995A52.405,52.405,0,0,0,172.9,17.359a.3.3,0,0,1,.224.266c.07,1.025.1,2.1.1,3.2a35.177,35.177,0,0,1-3.191,13.62.912.912,0,0,0,.48,1.2.956.956,0,0,0,1.2-.48,36.967,36.967,0,0,0,3.338-14.337c0-1.143-.037-2.262-.109-3.328a2.121,2.121,0,0,0-1.581-1.907c-10.163-2.668-17.9-7.309-21.216-12.732a2.008,2.008,0,0,0-3.43,0c-2.253,3.681-6.513,7.01-12.318,9.629a.912.912,0,1,0,.75,1.663Z" transform="translate(-119.75)" fill="#1c1c1c" stroke="#1c1c1c" stroke-width="0.8"/>
    <path id="Path_725" data-name="Path 725" d="M197.638,174.735v-7.364a3.166,3.166,0,0,0-2.892-3.15v-1.4a6.412,6.412,0,0,0-12.824,0v1.4a3.166,3.166,0,0,0-2.892,3.15v7.364a3.166,3.166,0,0,0,3.163,3.163h12.283A3.166,3.166,0,0,0,197.638,174.735Zm-9.3-16.5a4.593,4.593,0,0,1,4.588,4.588v1.386h-9.175v-1.386A4.593,4.593,0,0,1,188.334,158.236Zm-7.48,16.5v-7.364a1.34,1.34,0,0,1,1.338-1.338h12.283a1.34,1.34,0,0,1,1.338,1.338v7.364a1.34,1.34,0,0,1-1.338,1.338H182.193A1.339,1.339,0,0,1,180.855,174.735Z" transform="translate(-157.419 -135.662)" fill="#1c1c1c" stroke="#1c1c1c" stroke-width="0.8"/>
    <path id="Path_726" data-name="Path 726" d="M242.1,257.494a1.876,1.876,0,0,0-.646,3.584v1.175a.4.4,0,0,0,.4.4h.738a.4.4,0,0,0,.4-.4v-1.175a1.876,1.876,0,0,0-.89-3.584Z" transform="translate(-211.256 -224.409)" fill="#1c1c1c" stroke="#1c1c1c" stroke-width="0.8"/>
    <path id="Path_727" data-name="Path 727" d="M47.793,131.105c.829-1.394,1.626-2.826,2.373-4.286a.916.916,0,0,0-.391-1.229.9.9,0,0,0-1.22.393c-5.675,11.1-14.639,20.851-17.251,23.575a.54.54,0,0,1-.781,0,118.591,118.591,0,0,1-12.85-16.067c-6.229-9.476-9.387-17.891-9.387-25.011,0-1.1.035-2.18.1-3.205a.3.3,0,0,1,.223-.266c1.687-.446,3.335-.954,4.9-1.508a.914.914,0,0,0,.554-1.163.9.9,0,0,0-1.155-.558c-1.517.538-3.118,1.031-4.757,1.464a2.116,2.116,0,0,0-1.57,1.907c-.072,1.066-.108,2.186-.108,3.328,0,6.608,2.542,14.205,7.561,22.624,2.538,3.9-.557-.888,3.935,6.048a51.977,51.977,0,0,0,3.16,4.269c.613.789-1.241-1.626,3.317,4.089,2.052,2.425,3.77,4.27,4.774,5.317a2.342,2.342,0,0,0,3.386,0c1.129-1.177,2.821-3,4.784-5.319l.049,0c5.149-6.442,4.043-4.821,6.425-8.357C50.254,127.425,44.8,135.973,47.793,131.105Z" transform="translate(0 -87.651)" fill="#1c1c1c" stroke="#1c1c1c" stroke-width="0.8"/>
    <circle id="Ellipse_58" data-name="Ellipse 58" cx="1.747" cy="1.747" r="1.747" transform="translate(28.571 56.158) rotate(-67.486)" fill="#1c1c1c" stroke="#1c1c1c" stroke-width="0.8"/>
    <ellipse id="Ellipse_59" data-name="Ellipse 59" cx="1.747" cy="1.746" rx="1.747" ry="1.746" transform="matrix(0.987, -0.16, 0.16, 0.987, 28.83, 9.387)" fill="#1c1c1c" stroke="#1c1c1c" stroke-width="0.8"/>
    <path id="Path_728" data-name="Path 728" d="M93.485,145.777a1.746,1.746,0,1,0,1.747,1.747A1.746,1.746,0,0,0,93.485,145.777Z" transform="translate(-80.635 -126.325)" fill="#1c1c1c" stroke="#1c1c1c" stroke-width="0.8"/>
    <path id="Path_729" data-name="Path 729" d="M391.965,145.777a1.746,1.746,0,1,0,1.746,1.747A1.747,1.747,0,0,0,391.965,145.777Z" transform="translate(-342.986 -126.325)" fill="#1c1c1c" stroke="#1c1c1c" stroke-width="0.8"/>
  </g>
</svg>
