<svg xmlns="http://www.w3.org/2000/svg" width="69.5" height="55.5" viewBox="0 0 69.5 55.5">
  <g id="education_icon" data-name="education icon" transform="translate(0.25 -53.26)">
    <g id="Group_812" data-name="Group 812" transform="translate(25.972 63.941)">
      <g id="Group_811" data-name="Group 811" transform="translate(0 0)">
        <path id="Path_717" data-name="Path 717" d="M215.255,130.3H193.725a1.011,1.011,0,1,0,0,2.023h21.529a1.011,1.011,0,1,0,0-2.023Z" transform="translate(-192.714 -130.296)" fill="#1c1c1c" stroke="#1c1c1c" stroke-width="0.5"/>
      </g>
    </g>
    <g id="Group_814" data-name="Group 814" transform="translate(17.854 63.941)">
      <g id="Group_813" data-name="Group 813" transform="translate(0 0)">
        <path id="Path_718" data-name="Path 718" d="M136.908,130.3H133.5a1.011,1.011,0,0,0,0,2.023h3.41a1.011,1.011,0,0,0,0-2.023Z" transform="translate(-132.486 -130.296)" fill="#1c1c1c" stroke="#1c1c1c" stroke-width="0.5"/>
      </g>
    </g>
    <g id="Group_816" data-name="Group 816" transform="translate(17.854 95.193)">
      <g id="Group_815" data-name="Group 815">
        <path id="Path_719" data-name="Path 719" d="M144.076,360.341H133.5a1.011,1.011,0,1,0,0,2.023h10.578a1.011,1.011,0,1,0,0-2.023Z" transform="translate(-132.486 -360.341)" fill="#1c1c1c" stroke="#1c1c1c" stroke-width="0.5"/>
      </g>
    </g>
    <g id="Group_818" data-name="Group 818" transform="translate(17.855 84.776)">
      <g id="Group_817" data-name="Group 817" transform="translate(0 0)">
        <path id="Path_720" data-name="Path 720" d="M148.32,283.66H133.5a1.011,1.011,0,0,0,0,2.023H148.32a1.011,1.011,0,1,0,0-2.023Z" transform="translate(-132.486 -283.66)" fill="#1c1c1c" stroke="#1c1c1c" stroke-width="0.5"/>
      </g>
    </g>
    <g id="Group_820" data-name="Group 820" transform="translate(17.855 74.358)">
      <g id="Group_819" data-name="Group 819">
        <path id="Path_721" data-name="Path 721" d="M155.535,206.977H133.5a1.011,1.011,0,1,0,0,2.023h22.038a1.011,1.011,0,1,0,0-2.023Z" transform="translate(-132.486 -206.977)" fill="#1c1c1c" stroke="#1c1c1c" stroke-width="0.5"/>
      </g>
    </g>
    <g id="Group_822" data-name="Group 822" transform="translate(0 53.51)">
      <g id="Group_821" data-name="Group 821" transform="translate(0 0)">
        <path id="Path_722" data-name="Path 722" d="M60.047,53.51h-41.8a6.749,6.749,0,0,0-6.715,6.767v40.105H1.011a1.008,1.008,0,0,0-.719.3,1.023,1.023,0,0,0-.293.727c.04,4.047,2.926,7.1,6.713,7.1H48.641a6.749,6.749,0,0,0,6.715-6.767V89.392a1.012,1.012,0,1,0-2.023,0v12.351a4.715,4.715,0,0,1-4.692,4.728h-.127a4.824,4.824,0,0,1-4.69-5.08,1.015,1.015,0,0,0-1.011-1.009H13.555V60.277a4.715,4.715,0,0,1,4.692-4.728h37c-.03.031-.058.063-.087.094s-.071.075-.106.114-.072.083-.107.125-.068.08-.1.121-.067.086-.1.129-.065.083-.1.126-.063.088-.094.133-.062.087-.091.132-.058.091-.087.137-.058.091-.085.137-.054.094-.08.141-.054.093-.079.141-.049.1-.074.145-.049.1-.073.145-.045.1-.067.149-.045.1-.066.149-.04.1-.06.153-.04.1-.058.152-.036.106-.054.159-.035.1-.051.153-.031.11-.046.165-.03.1-.043.154-.027.115-.04.172-.024.1-.034.152-.022.12-.032.181-.019.1-.026.15-.017.13-.025.195c-.006.047-.013.093-.018.141-.007.073-.012.146-.017.22,0,.04-.007.08-.009.121q-.008.171-.009.345v9.047a1.011,1.011,0,1,0,2.023,0V61.638h10.4a1.008,1.008,0,0,0,.719-.3,1.023,1.023,0,0,0,.293-.727C66.731,56.562,63.845,53.51,60.047,53.51ZM41.871,102.42q.021.158.048.314c.006.035.013.069.02.1.013.069.026.137.04.2.009.041.018.081.028.121.014.061.028.122.044.182.011.042.023.084.034.126.016.057.032.114.049.171s.026.085.039.127.036.11.054.164.029.084.044.125.04.108.061.161.032.081.048.121.045.107.069.16c.017.038.033.076.051.114.026.056.053.111.079.165.017.034.033.068.05.1.033.064.067.127.1.19l.037.069q.072.128.149.252l.037.057c.04.063.081.126.123.187l.059.084c.036.051.072.1.11.153l.068.089c.036.047.073.094.11.139l.074.089q.056.066.113.131l.078.086.056.062H6.713A4.7,4.7,0,0,1,2.12,102.42H41.871ZM55.4,59.6c0-.007,0-.014,0-.021,0-.031.01-.062.015-.093s.015-.087.023-.13.014-.065.021-.1.018-.081.028-.121.017-.067.026-.1.021-.076.032-.114.021-.068.032-.1.024-.072.036-.108.024-.069.037-.1.026-.067.039-.1.028-.07.043-.105.027-.062.042-.092.033-.073.05-.109.027-.053.04-.079.04-.078.061-.117l.025-.044a4.739,4.739,0,0,1,.308-.481l0,0c.036-.049.073-.1.111-.145l.018-.023c.037-.046.075-.091.114-.136l.022-.025q.059-.067.121-.132l.02-.021q.064-.066.13-.131l.015-.014q.07-.067.143-.131l0,0a4.676,4.676,0,0,1,2.223-1.085h0q.1-.019.208-.034l.013,0q.1-.014.2-.023l.031,0c.062-.005.124-.01.186-.013l.109,0,.117,0A4.7,4.7,0,0,1,64.651,59.6H55.4Z" transform="translate(0 -53.51)" fill="#1c1c1c" stroke="#1c1c1c" stroke-width="0.5"/>
      </g>
    </g>
    <g id="Group_824" data-name="Group 824" transform="translate(36.255 71.396)">
      <g id="Group_823" data-name="Group 823" transform="translate(0 0)">
        <path id="Path_723" data-name="Path 723" d="M301.75,185.291c0-.012,0-.023,0-.035a1,1,0,0,0-.05-.274s0-.009,0-.013l0-.01a1.017,1.017,0,0,0-.056-.129l-.008-.015a1.015,1.015,0,0,0-.066-.1l-.015-.022a1.013,1.013,0,0,0-.086-.1l-.021-.02a1.008,1.008,0,0,0-.092-.079l-.013-.01a1.033,1.033,0,0,0-.115-.072l-.023-.012a1,1,0,0,0-.126-.054h0a1.027,1.027,0,0,0-.134-.035l-.03-.005a1.01,1.01,0,0,0-.14-.014c-8.463-.219-19.5,1.818-25.076,8.187-2.442,2.787-3.568,6.323-4.657,9.743q-.134.42-.268.839l-.011.036-1.709,6.071a1.011,1.011,0,1,0,1.947.548l1.585-5.63a31.49,31.49,0,0,1,5.606-1.906c1.093-.3,2.333-.634,3.832-1.1,3.242-1,9.462-5.169,12.325-8.267a69.115,69.115,0,0,1,7.044-6.733l.008-.008a1.015,1.015,0,0,0,.1-.1l.006-.006a1.011,1.011,0,0,0,.084-.111l.014-.022a1,1,0,0,0,.113-.251l.007-.026a1.011,1.011,0,0,0,.027-.135s0,0,0-.006c0-.031.006-.063.007-.1C301.752,185.314,301.751,185.3,301.75,185.291Zm-24.539,8.517c2.354-2.687,5.962-4.713,10.724-6.021a39.672,39.672,0,0,1,4.026-.873,78.224,78.224,0,0,0-8.82,5.133,80.9,80.9,0,0,0-8.785,6.716A16.6,16.6,0,0,1,277.212,193.808Zm15.643-2.369c-2.786,3.015-8.8,6.9-11.434,7.706-1.468.451-2.69.784-3.769,1.077-.976.265-1.863.507-2.741.786.393-.376.853-.8,1.4-1.271a80.922,80.922,0,0,1,7.959-6.008,54.947,54.947,0,0,1,13.114-6.842C295.907,188.242,294.46,189.7,292.855,191.439Z" transform="translate(-269.006 -184.272)" fill="#1c1c1c" stroke="#1c1c1c" stroke-width="0.5"/>
      </g>
    </g>
  </g>
</svg>
