<svg xmlns="http://www.w3.org/2000/svg" width="10" height="24" viewBox="0 0 10 24"><g><g><path fill="#fff" d="M3.296 1.236C4.133.346 5.318.042 6.44.007 7.626-.004 8.81.001 9.996.001c.005 1.404.005 2.801 0 4.205H7.7c-.484-.035-.983.378-1.071.92-.01.938-.005 1.875-.005 2.813 1.122.006 2.245 0 3.368.006a58.194 58.194 0 0 1-.41 4.047c-.993.012-1.986 0-2.98.006-.01 4 .006 7.995-.004 11.996C5.12 24 3.649 23.988 2.173 24c-.026-4 0-8.001-.016-12.002-.717-.006-1.44.006-2.157-.006.005-1.345 0-2.69 0-4.03.717-.012 1.44 0 2.157-.006.021-1.304-.02-2.614.021-3.919.078-1.042.427-2.085 1.118-2.8z"/></g></g></svg>
