<svg xmlns="http://www.w3.org/2000/svg" width="22" height="18" viewBox="0 0 22 18"><defs><clipPath id="2w4ra"><path fill="#fff" d="M3 3a3 3 0 1 1 6 0 3 3 0 0 1-6 0z"/></clipPath><clipPath id="2w4rb"><path fill="#fff" d="M13 15a3 3 0 1 1 6 0 3 3 0 0 1-6 0z"/></clipPath></defs><g><g opacity="1"><g><path fill="none" stroke="#2aabe3" stroke-linecap="round" stroke-miterlimit="20" stroke-width="1.5" d="M1 3h20"/></g><g><path fill="none" stroke="#2aabe3" stroke-linecap="round" stroke-miterlimit="20" stroke-width="1.5" d="M1 15h20"/></g><g><path fill="#fff" d="M3 3a3 3 0 1 1 6 0 3 3 0 0 1-6 0z"/><path fill="none" stroke="#2aabe3" stroke-miterlimit="20" stroke-width="3" d="M3 3a3 3 0 1 1 6 0 3 3 0 0 1-6 0z" clip-path="url(&quot;#2w4ra&quot;)"/></g><g><path fill="#fff" d="M13 15a3 3 0 1 1 6 0 3 3 0 0 1-6 0z"/><path fill="none" stroke="#2aabe3" stroke-miterlimit="20" stroke-width="3" d="M13 15a3 3 0 1 1 6 0 3 3 0 0 1-6 0z" clip-path="url(&quot;#2w4rb&quot;)"/></g></g></g></svg>