<svg xmlns="http://www.w3.org/2000/svg" width="24" height="24" viewBox="0 0 24 24"><g><g opacity="1"><g><path fill="#989899" d="M1.432 10.233c0-4.853 3.95-8.796 8.798-8.796 4.854 0 8.799 3.948 8.799 8.796 0 4.848-3.945 8.802-8.799 8.802-4.849 0-8.798-3.949-8.798-8.802zm22.36 12.543l-5.833-5.832a10.19 10.19 0 0 0 2.512-6.71C20.471 4.586 15.878 0 10.236 0 4.588 0 0 4.592 0 10.233c0 5.641 4.593 10.234 10.236 10.234 2.565 0 4.912-.948 6.711-2.512l5.834 5.832a.723.723 0 0 0 .506.213.72.72 0 0 0 .506-1.224z"/></g></g></g></svg>
