<svg xmlns="http://www.w3.org/2000/svg" width="97" height="54" viewBox="0 0 97 54"><g><g opacity="1"><g><path fill="#1c1c1c" d="M64.657 46.428a4.666 4.666 0 0 1-6.558.664 4.667 4.667 0 0 1-.664-6.56 4.653 4.653 0 0 1 3.615-1.71 4.64 4.64 0 0 1 2.943 1.048 4.666 4.666 0 0 1 .664 6.558zM34.09 24.074a4.635 4.635 0 0 1-3.141 1.69 4.634 4.634 0 0 1-3.417-1.026 4.666 4.666 0 0 1-.664-6.558 4.665 4.665 0 0 1 6.558-.664 4.627 4.627 0 0 1 1.69 3.142 4.629 4.629 0 0 1-1.026 3.416zM12.269 48.019a4.627 4.627 0 0 1-3.142 1.69 4.625 4.625 0 0 1-3.417-1.026 4.668 4.668 0 0 1-.664-6.56 4.666 4.666 0 0 1 6.558-.662 4.8 4.8 0 0 1 .52.517c.084.162.196.313.342.44.449.644.747 1.383.829 2.185a4.624 4.624 0 0 1-1.026 3.416zM65.89 37.546c-2.883-2.355-6.982-2.25-9.742.047l-18.262-14.53a7.655 7.655 0 0 0 .215-2.708 7.609 7.609 0 0 0-2.778-5.164c-3.272-2.671-8.108-2.181-10.78 1.09-2.398 2.94-2.24 7.135.187 9.896L13.413 39.07a7.576 7.576 0 0 0-5.526-1.62 7.608 7.608 0 0 0-5.164 2.777C.052 43.5.542 48.335 3.813 51.006a7.602 7.602 0 0 0 5.617 1.687 7.609 7.609 0 0 0 5.164-2.778A7.609 7.609 0 0 0 16.28 44.3a7.64 7.64 0 0 0-.906-2.917L27.132 27.99a7.63 7.63 0 0 0 3.342.794 7.65 7.65 0 0 0 5.942-2.813c.04-.05.074-.103.113-.154l17.73 14.107c-1.654 3.155-.922 7.153 1.943 9.492a7.628 7.628 0 0 0 4.837 1.722c2.224 0 4.43-.96 5.942-2.813a7.609 7.609 0 0 0 1.687-5.615 7.612 7.612 0 0 0-2.777-5.164z"/><path fill="none" stroke="#1c1c1c" stroke-miterlimit="20" d="M64.657 46.428a4.666 4.666 0 0 1-6.558.664 4.667 4.667 0 0 1-.664-6.56 4.653 4.653 0 0 1 3.615-1.71 4.64 4.64 0 0 1 2.943 1.048 4.666 4.666 0 0 1 .664 6.558zM34.09 24.074a4.635 4.635 0 0 1-3.141 1.69 4.634 4.634 0 0 1-3.417-1.026 4.666 4.666 0 0 1-.664-6.558 4.665 4.665 0 0 1 6.558-.664 4.627 4.627 0 0 1 1.69 3.142 4.629 4.629 0 0 1-1.026 3.416zM12.269 48.019a4.627 4.627 0 0 1-3.142 1.69 4.625 4.625 0 0 1-3.417-1.026 4.668 4.668 0 0 1-.664-6.56 4.666 4.666 0 0 1 6.558-.662 4.8 4.8 0 0 1 .52.517c.084.162.196.313.342.44.449.644.747 1.383.829 2.185a4.624 4.624 0 0 1-1.026 3.416zM65.89 37.546c-2.883-2.355-6.982-2.25-9.742.047l-18.262-14.53a7.655 7.655 0 0 0 .215-2.708 7.609 7.609 0 0 0-2.778-5.164c-3.272-2.671-8.108-2.181-10.78 1.09-2.398 2.94-2.24 7.135.187 9.896L13.413 39.07a7.576 7.576 0 0 0-5.526-1.62 7.608 7.608 0 0 0-5.164 2.777C.052 43.5.542 48.335 3.813 51.006a7.602 7.602 0 0 0 5.617 1.687 7.609 7.609 0 0 0 5.164-2.778A7.609 7.609 0 0 0 16.28 44.3a7.64 7.64 0 0 0-.906-2.917L27.132 27.99a7.63 7.63 0 0 0 3.342.794 7.65 7.65 0 0 0 5.942-2.813c.04-.05.074-.103.113-.154l17.73 14.107c-1.654 3.155-.922 7.153 1.943 9.492a7.628 7.628 0 0 0 4.837 1.722c2.224 0 4.43-.96 5.942-2.813a7.609 7.609 0 0 0 1.687-5.615 7.612 7.612 0 0 0-2.777-5.164z"/></g><g><path fill="#1c1c1c" d="M72.81 31.094a1.501 1.501 0 0 0-2.106.24l-2.274 2.86a1.5 1.5 0 1 0 2.348 1.868l2.274-2.861a1.5 1.5 0 0 0-.241-2.107z"/><path fill="none" stroke="#1c1c1c" stroke-miterlimit="20" d="M72.81 31.094a1.501 1.501 0 0 0-2.106.24l-2.274 2.86a1.5 1.5 0 1 0 2.348 1.868l2.274-2.861a1.5 1.5 0 0 0-.241-2.107z"/></g><g><path fill="#1c1c1c" d="M82.264 19.214a1.5 1.5 0 0 0-2.107.24l-4.726 5.94a1.5 1.5 0 0 0 2.348 1.868l4.726-5.94a1.502 1.502 0 0 0-.241-2.108z"/><path fill="none" stroke="#1c1c1c" stroke-miterlimit="20" d="M82.264 19.214a1.5 1.5 0 0 0-2.107.24l-4.726 5.94a1.5 1.5 0 0 0 2.348 1.868l4.726-5.94a1.502 1.502 0 0 0-.241-2.108z"/></g><g><path fill="#1c1c1c" d="M89.266 10.413a1.5 1.5 0 0 0-2.107.24l-2.276 2.86a1.5 1.5 0 0 0 2.348 1.869l2.276-2.861a1.502 1.502 0 0 0-.241-2.108z"/><path fill="none" stroke="#1c1c1c" stroke-miterlimit="20" d="M89.266 10.413a1.5 1.5 0 0 0-2.107.24l-2.276 2.86a1.5 1.5 0 0 0 2.348 1.869l2.276-2.861a1.502 1.502 0 0 0-.241-2.108z"/></g><g><path fill="#1c1c1c" d="M95.859 1.277a1.498 1.498 0 0 0-1.39-.183L83.238 5.256A1.5 1.5 0 0 0 84.28 8.07l9.175-3.4-.17 9.784a1.501 1.501 0 0 0 1.476 1.526h.026a1.5 1.5 0 0 0 1.499-1.474l.206-11.978a1.5 1.5 0 0 0-.633-1.251z"/><path fill="none" stroke="#1c1c1c" stroke-miterlimit="20" d="M95.859 1.277a1.498 1.498 0 0 0-1.39-.183L83.238 5.256A1.5 1.5 0 0 0 84.28 8.07l9.175-3.4v0l-.17 9.784a1.501 1.501 0 0 0 1.476 1.526h.026a1.5 1.5 0 0 0 1.499-1.474l.206-11.978a1.5 1.5 0 0 0-.633-1.251z"/></g></g></g></svg>
