<svg xmlns="http://www.w3.org/2000/svg" width="44" height="44" viewBox="0 0 44 44"><g><g><path fill="#fff" d="M38.745 41.164l-6.898-6.853 2.406-2.393 6.899 6.853zM2.53 17.74c0-8.393 6.87-15.22 15.314-15.22 8.445 0 15.314 6.827 15.314 15.22 0 8.392-6.87 15.22-15.314 15.22-8.444 0-15.314-6.828-15.314-15.22zm40.245 20.492l-7.982-7.928a.768.768 0 0 0-.54-.223h-.001a.77.77 0 0 0-.542.223l-1.31 1.302-2.355-2.341c2.874-3.004 4.643-7.061 4.643-11.525C34.688 8.511 27.132 1 17.844 1S1 8.51 1 17.74c0 9.233 7.556 16.742 16.844 16.742 4.248 0 8.131-1.574 11.098-4.162l2.378 2.363-1.097 1.09a.757.757 0 0 0 0 1.076l7.982 7.928a.768.768 0 0 0 1.082 0l3.489-3.469a.759.759 0 0 0 0-1.075z"/><path fill="none" stroke="#fff" stroke-miterlimit="20" d="M38.745 41.164l-6.898-6.853 2.406-2.393 6.899 6.853zM2.53 17.74c0-8.393 6.87-15.22 15.314-15.22 8.445 0 15.314 6.827 15.314 15.22 0 8.392-6.87 15.22-15.314 15.22-8.444 0-15.314-6.828-15.314-15.22zm40.245 20.492l-7.982-7.928a.768.768 0 0 0-.54-.223h-.001a.77.77 0 0 0-.542.223l-1.31 1.302-2.355-2.341c2.874-3.004 4.643-7.061 4.643-11.525C34.688 8.511 27.132 1 17.844 1S1 8.51 1 17.74c0 9.233 7.556 16.742 16.844 16.742 4.248 0 8.131-1.574 11.098-4.162l2.378 2.363-1.097 1.09a.757.757 0 0 0 0 1.076l7.982 7.928a.768.768 0 0 0 1.082 0l3.489-3.469a.759.759 0 0 0 0-1.075z"/></g></g></svg>