<svg xmlns="http://www.w3.org/2000/svg" width="72" height="64" viewBox="0 0 72 64"><g><g opacity="1"><g><path fill="#1c1c1c" d="M3.738 19.914h64.524v40.327H3.738zM68.262 3.76v13.395H3.738V3.76zM69.632 1H2.368C1.612 1 1 1.617 1 2.38v59.24c0 .762.612 1.38 1.369 1.38H69.63c.756 0 1.37-.618 1.37-1.38V2.38C70.999 1.617 70.386 1 69.63 1z"/><path fill="none" stroke="#1c1c1c" stroke-miterlimit="20" d="M3.738 19.914h64.524v40.327H3.738zM68.262 3.76v13.395H3.738V3.76zM69.632 1H2.368C1.612 1 1 1.617 1 2.38v59.24c0 .762.612 1.38 1.369 1.38H69.63c.756 0 1.37-.618 1.37-1.38V2.38C70.999 1.617 70.386 1 69.63 1z"/></g><g><path fill="#1c1c1c" d="M9.352 11.47h5.09a1.38 1.38 0 1 0 0-2.759h-5.09a1.38 1.38 0 1 0 0 2.76z"/><path fill="none" stroke="#1c1c1c" stroke-miterlimit="20" d="M9.352 11.47h5.09a1.38 1.38 0 1 0 0-2.759h-5.09a1.38 1.38 0 1 0 0 2.76z"/></g><g><path fill="#1c1c1c" d="M20.104 11.47h5.09a1.38 1.38 0 1 0 0-2.759h-5.09a1.38 1.38 0 1 0 0 2.76z"/><path fill="none" stroke="#1c1c1c" stroke-miterlimit="20" d="M20.104 11.47h5.09a1.38 1.38 0 1 0 0-2.759h-5.09a1.38 1.38 0 1 0 0 2.76z"/></g><g><path fill="none" stroke="#1c1c1c" stroke-linecap="round" stroke-miterlimit="20" stroke-width="3" d="M36 30v20"/></g><g><path fill="none" stroke="#1c1c1c" stroke-linecap="round" stroke-miterlimit="20" stroke-width="3" d="M46 40H26"/></g></g></g></svg>
