<svg xmlns="http://www.w3.org/2000/svg" width="63.155" height="63.095" viewBox="0 0 63.155 63.095">
  <g id="internet_icon" data-name="internet icon" transform="translate(0.656 0.535)">
    <g id="Group_798" data-name="Group 798" transform="translate(-0.002 -0.019)">
      <path id="Path_710" data-name="Path 710" d="M62,30.983a29.585,29.585,0,0,0-.63-6.2.864.864,0,0,0-1.7.339,29.171,29.171,0,0,1,.581,5.036H48.145A51.282,51.282,0,0,0,46.159,16.6a33.033,33.033,0,0,0,7.847-3.632,28.829,28.829,0,0,1,1.937,2.809.808.808,0,0,0,1.162.242.862.862,0,0,0,.291-1.162,29.157,29.157,0,0,0-2.422-3.438,1.284,1.284,0,0,0-.242-.291A30.865,30.865,0,0,0,11.14,7.206a33.345,33.345,0,0,0-3.923,3.923l-.145.145a.047.047,0,0,1-.048.048A31.157,31.157,0,0,0,1.21,39.652a.828.828,0,0,0,1.6-.436v-.048a31.124,31.124,0,0,1-1.162-7.312H13.755a51.282,51.282,0,0,0,1.986,13.559,33.033,33.033,0,0,0-7.847,3.632,31.225,31.225,0,0,1-2.616-3.971.856.856,0,0,0-1.5.823,30.953,30.953,0,0,0,50.907,4.988.861.861,0,0,0,.339-.387A30.851,30.851,0,0,0,62,30.983ZM30.175,60.233c-5.183-.533-9.687-5.86-12.255-13.7a48,48,0,0,1,12.255-1.743Zm1.7-15.448a47.4,47.4,0,0,1,12.255,1.743C41.509,54.373,37,59.7,31.87,60.233Zm0-1.695V31.855H46.5A51.942,51.942,0,0,1,44.658,44.93,52.276,52.276,0,0,0,31.87,43.09ZM48.194,31.806H60.3a29.425,29.425,0,0,1-6.248,17.24,33.033,33.033,0,0,0-7.847-3.632A51.64,51.64,0,0,0,48.194,31.806Zm-1.7-1.695H31.87V18.828a51.888,51.888,0,0,0,12.787-1.792A51.942,51.942,0,0,1,46.5,30.111ZM7.943,12.92a33.033,33.033,0,0,0,7.847,3.632A51.575,51.575,0,0,0,13.8,30.111H1.694A29.283,29.283,0,0,1,7.943,12.92Zm9.445,4.116a49.69,49.69,0,0,0,12.787,1.792V30.111H15.5a49.887,49.887,0,0,1,1.889-13.075ZM31.87,1.733c5.183.533,9.687,5.86,12.255,13.7A48,48,0,0,1,31.87,17.182Zm-1.7,15.448a47.4,47.4,0,0,1-12.255-1.743c2.567-7.845,7.072-13.172,12.255-13.7Zm22.814-5.569a32.949,32.949,0,0,1-7.266,3.341c-1.841-5.521-4.65-9.927-7.992-12.494A28.812,28.812,0,0,1,52.989,11.613ZM24.266,2.46c-3.342,2.567-6.1,6.973-7.944,12.446a32.949,32.949,0,0,1-7.266-3.341,29.345,29.345,0,0,1,15.209-9.1ZM15.5,31.855H30.127V43.138A51.888,51.888,0,0,0,17.339,44.93,51.942,51.942,0,0,1,15.5,31.855Zm-6.491,18.5a32.949,32.949,0,0,1,7.266-3.341c1.841,5.521,4.65,9.927,7.992,12.494A29.433,29.433,0,0,1,9.008,50.354Zm28.723,9.153c3.342-2.567,6.1-6.973,7.944-12.446A32.948,32.948,0,0,1,52.94,50.4a29.345,29.345,0,0,1-15.209,9.1Z" transform="translate(0.002 0.019)" fill="#1c1c1c" stroke="#1c1c1c" stroke-width="1"/>
    </g>
  </g>
</svg>
