<svg xmlns="http://www.w3.org/2000/svg" width="62.805" height="62.834" viewBox="0 0 62.805 62.834">
  <g id="it_icon" data-name="it icon" transform="translate(-7.593 -7.578)">
    <path id="Path_734" data-name="Path 734" d="M56.759,19.011A17.5,17.5,0,0,0,23.123,23.4,12,12,0,0,0,11.265,43.217c.055.06.111.119.162.17A11.911,11.911,0,0,0,20,46.988H31v12H26.7a3,3,0,1,0,0,2H32a1,1,0,0,0,1-1v-13h5V64.16a3,3,0,1,0,2,0V46.988h5v20a1,1,0,0,0,1,1h5.3a3,3,0,1,0,0-2H47v-19h9a14,14,0,0,0,.76-27.978ZM23.874,60.988a1,1,0,1,1,1-1A1,1,0,0,1,23.874,60.988Zm30.25,5a1,1,0,1,1-1,1A1,1,0,0,1,54.124,65.988ZM39,67.987a1,1,0,1,1,1-1A1,1,0,0,1,39,67.987Zm25.307-26.34A11.941,11.941,0,0,1,56,44.988H20a9.934,9.934,0,0,1-7.15-3.009c-.04-.039-.079-.08-.122-.127A10,10,0,0,1,23.64,25.674a1,1,0,0,0,1.375-.882,15.5,15.5,0,0,1,30.1-4.469,1,1,0,0,0,.938.667A12.025,12.025,0,0,1,68,32.989a11.9,11.9,0,0,1-3.692,8.658Z" transform="translate(0 0)" fill="#1c1c1c" stroke="#1c1c1c" stroke-width="0.8"/>
    <path id="Path_735" data-name="Path 735" d="M104.967,272H97a1,1,0,1,0,0,1.993h7.971a1,1,0,1,0,0-1.993Z" transform="translate(-76.993 -231.007)" fill="#1c1c1c" stroke="#1c1c1c" stroke-width="0.8"/>
    <path id="Path_736" data-name="Path 736" d="M185.993,272h-1a1,1,0,1,0,0,1.993h1a1,1,0,1,0,0-1.993Z" transform="translate(-153.997 -231.007)" fill="#1c1c1c" stroke="#1c1c1c" stroke-width="0.8"/>
  </g>
</svg>
