<svg xmlns="http://www.w3.org/2000/svg" width="24" height="23" viewBox="0 0 24 23"><g><g><path fill="#fff" d="M.306 23h5.143V7.481H.306zM2.912 0C1.152 0 0 1.158 0 2.681c0 1.49 1.118 2.683 2.844 2.683h.034c1.794 0 2.91-1.193 2.91-2.683C5.754 1.158 4.672 0 2.912 0zM24 14.101c0-4.766-2.538-6.985-5.924-6.985-2.733 0-3.953 1.509-4.637 2.565v.05h-.034l.034-.05v-2.2H8.294c.07 1.457 0 15.519 0 15.519h5.146v-8.667c0-.464.035-.926.17-1.257.373-.929 1.219-1.888 2.64-1.888 1.862 0 2.606 1.424 2.606 3.51V23H24v-8.899z"/></g></g></svg>
