<?xml version="1.0" encoding="UTF-8" standalone="no"?>
<svg
   xmlns:dc="http://purl.org/dc/elements/1.1/"
   xmlns:cc="http://creativecommons.org/ns#"
   xmlns:rdf="http://www.w3.org/1999/02/22-rdf-syntax-ns#"
   xmlns:svg="http://www.w3.org/2000/svg"
   xmlns="http://www.w3.org/2000/svg"
   xmlns:sodipodi="http://sodipodi.sourceforge.net/DTD/sodipodi-0.dtd"
   xmlns:inkscape="http://www.inkscape.org/namespaces/inkscape"
   width="120"
   height="66"
   viewBox="0 0 120 66"
   version="1.1"
   id="svg626"
   sodipodi:docname="logo-white-text.svg"
   inkscape:version="0.92.3 (2405546, 2018-03-11)">
  <metadata
     id="metadata632">
    <rdf:RDF>
      <cc:Work
         rdf:about="">
        <dc:format>image/svg+xml</dc:format>
        <dc:type
           rdf:resource="http://purl.org/dc/dcmitype/StillImage" />
        <dc:title></dc:title>
      </cc:Work>
    </rdf:RDF>
  </metadata>
  <defs
     id="defs630" />
  <sodipodi:namedview
     pagecolor="#ffffff"
     bordercolor="#666666"
     borderopacity="1"
     objecttolerance="10"
     gridtolerance="10"
     guidetolerance="10"
     inkscape:pageopacity="0"
     inkscape:pageshadow="2"
     inkscape:window-width="1863"
     inkscape:window-height="1056"
     id="namedview628"
     showgrid="false"
     inkscape:zoom="2.4333333"
     inkscape:cx="313.19326"
     inkscape:cy="24.678675"
     inkscape:window-x="57"
     inkscape:window-y="24"
     inkscape:window-maximized="1"
     inkscape:current-layer="g622" />
  <g
     id="g624">
    <g
       id="g622">
      <g
         id="g448">
        <g
           id="g394">
          <path
             d="M1.435 61.037C.478 60.108 0 58.93 0 57.502s.478-2.606 1.435-3.535c.956-.93 2.125-1.394 3.507-1.394 1.071 0 2.023.284 2.856.852.833.567 1.414 1.354 1.744 2.36H6.74c-.365-.704-.951-1.056-1.756-1.056-.806 0-1.44.251-1.902.755-.462.503-.693 1.176-.693 2.018 0 .842.23 1.514.693 2.018.462.504 1.082.755 1.86.755.559 0 1.014-.14 1.366-.419a2.02 2.02 0 0 0 .707-1.118H4.297v-1.785h5.244v1.785c-.174.878-.654 1.697-1.44 2.457a4.34 4.34 0 0 1-1.394.892 4.567 4.567 0 0 1-1.765.343c-1.382 0-2.55-.464-3.507-1.393z"
             id="path392" />
        </g>
        <g
           id="g398">
          <path
             d="M14.525 60.44c-.44 0-.822-.165-1.147-.494-.325-.33-.487-.806-.487-1.428 0-.623.158-1.096.474-1.421a1.525 1.525 0 0 1 1.132-.487c.44 0 .82.162 1.14.487.32.325.48.798.48 1.42 0 .623-.156 1.1-.467 1.429-.31.33-.686.494-1.125.494zm0 2.004c1.134 0 2.082-.361 2.841-1.084.76-.723 1.14-1.675 1.14-2.856 0-1.18-.382-2.126-1.146-2.835-.765-.71-1.714-1.064-2.849-1.064-1.135 0-2.087.355-2.856 1.064-.768.71-1.153 1.654-1.153 2.835 0 1.18.387 2.133 1.16 2.856.774.723 1.728 1.084 2.863 1.084z"
             id="path396" />
        </g>
        <g
           id="g402">
          <path
             d="M19.072 54.687h2.498l1.744 5.698 1.744-5.698h2.498l-2.718 7.66H21.79z"
             id="path400" />
        </g>
        <g
           id="g406">
          <path
             d="M39.351 52.71h2.526l-2.69 9.638h-2.691l-1.69-6.11-1.674 6.11h-2.691l-2.732-9.637h2.513l1.674 6.933 1.717-6.933h2.663l1.647 6.823z"
             id="path404" />
        </g>
        <g
           id="g410">
          <path
             d="M45.372 52.189v3.624c.485-.805 1.258-1.208 2.32-1.208.879 0 1.59.293 2.135.879.545.585.817 1.382.817 2.388v4.476H48.31v-4.16c0-.494-.13-.876-.391-1.146-.261-.27-.62-.405-1.078-.405-.458 0-.817.135-1.078.405-.26.27-.39.652-.39 1.146v4.16h-2.349V52.189z"
             id="path408" />
        </g>
        <g
           id="g414">
          <path
             d="M52.646 62.348v-7.66h2.347v7.66zm2.141-8.525c-.265.265-.59.397-.974.397s-.71-.132-.975-.397a1.332 1.332 0 0 1-.398-.982c0-.389.132-.716.398-.982.265-.265.59-.398.975-.398.384 0 .709.133.974.398.266.266.399.593.399.982s-.133.716-.399.982z"
             id="path412" />
        </g>
        <g
           id="g418">
          <path
             d="M60.314 60.357h.838v1.99h-1.195c-.86 0-1.526-.189-1.998-.569-.47-.38-.706-1.031-.706-1.956v-3.185h-.714v-1.95h.714V52.82H59.6v1.867h1.538v1.95H59.6v3.185c0 .357.238.535.714.535z"
             id="path416" />
        </g>
        <g
           id="g422">
          <path
             d="M67.492 57.818h-2.87c.064-.357.224-.648.481-.872.256-.224.572-.336.947-.336s.7.112.975.336c.274.224.43.515.467.872zm-1.47 4.626c.907 0 1.69-.235 2.348-.707a3.364 3.364 0 0 0 1.318-1.86h-2.54c-.11.137-.199.236-.267.295-.069.06-.176.119-.323.179-.146.06-.368.089-.666.089-.297 0-.574-.108-.83-.323a1.265 1.265 0 0 1-.453-.83h5.271c.037-.23.055-.476.055-.742 0-1.235-.37-2.2-1.112-2.897-.74-.695-1.675-1.043-2.8-1.043-1.126 0-2.044.353-2.753 1.057-.71.705-1.064 1.652-1.064 2.842 0 1.19.357 2.144 1.07 2.862.715.72 1.63 1.078 2.746 1.078z"
             id="path420" />
        </g>
        <g
           id="g426">
          <path
             d="M73.807 54.495h1.455c.348 0 .627.11.838.33.21.22.316.5.316.844 0 .343-.104.62-.31.83-.205.211-.486.316-.844.316h-1.455zm4.064-.92c-.623-.576-1.492-.864-2.609-.864H71.46v9.637h2.347V58.6h1.455c.668 0 1.247-.098 1.737-.295.49-.197.858-.45 1.105-.762.467-.604.7-1.23.7-1.88 0-.816-.31-1.51-.933-2.088z"
             id="path424" />
        </g>
        <g
           id="g430">
          <path
             d="M83.733 60.412c-.44 0-.828-.162-1.167-.487-.339-.325-.508-.79-.508-1.393 0-.605.17-1.071.508-1.4.339-.33.728-.495 1.167-.495.44 0 .828.163 1.167.487.339.325.508.79.508 1.394 0 .604-.17 1.07-.508 1.4-.339.33-.728.494-1.167.494zm-3.048.934c.678.732 1.492 1.098 2.444 1.098s1.711-.403 2.279-1.208v1.112h2.347v-7.66h-2.347v1.002c-.522-.723-1.27-1.085-2.245-1.085-.975 0-1.8.369-2.478 1.105-.677.737-1.016 1.677-1.016 2.822 0 1.144.339 2.082 1.016 2.814z"
             id="path428" />
        </g>
        <g
           id="g434">
          <path
             d="M93.853 60.412c-.44 0-.828-.164-1.167-.494-.339-.33-.508-.796-.508-1.4 0-.604.17-1.069.508-1.394.339-.324.728-.487 1.167-.487.44 0 .828.165 1.167.494.338.33.508.796.508 1.4 0 .605-.17 1.07-.508 1.394-.339.325-.728.487-1.167.487zm-1.675-5.724h-2.347V66h2.347v-4.764c.55.806 1.304 1.208 2.265 1.208.962 0 1.78-.366 2.458-1.098.677-.732 1.016-1.67 1.016-2.814 0-1.145-.34-2.085-1.016-2.822-.678-.736-1.504-1.105-2.478-1.105-.975 0-1.723.362-2.245 1.085z"
             id="path432" />
        </g>
        <g
           id="g438">
          <path
             d="M103.704 56.946c.275.224.43.515.467.872h-2.869c.064-.357.224-.648.48-.872.256-.224.572-.336.948-.336.375 0 .7.112.974.336zm-1.002 5.498c.907 0 1.689-.235 2.348-.707a3.364 3.364 0 0 0 1.318-1.86h-2.54c-.11.137-.2.236-.268.295-.069.06-.176.119-.322.179-.147.06-.37.089-.666.089-.298 0-.575-.108-.83-.323a1.267 1.267 0 0 1-.454-.83h5.272c.036-.23.055-.476.055-.742 0-1.235-.37-2.2-1.112-2.897-.742-.695-1.675-1.043-2.8-1.043-1.127 0-2.045.353-2.754 1.057-.709.705-1.064 1.652-1.064 2.842 0 1.19.357 2.144 1.071 2.862.714.72 1.63 1.078 2.746 1.078z"
             id="path436" />
        </g>
        <g
           id="g442">
          <path
             d="M110.472 54.688v1.427c.55-1.006 1.28-1.51 2.197-1.51v2.389h-.577c-.54 0-.945.128-1.215.384-.27.256-.405.705-.405 1.346v3.624h-2.348v-7.66z"
             id="path440" />
        </g>
        <g
           id="g446">
          <path
             d="M113.424 56.994c0-.677.288-1.245.865-1.702.577-.458 1.356-.687 2.34-.687.984 0 1.778.224 2.382.673.604.449.925 1.062.962 1.84h-2.403c-.028-.266-.12-.447-.275-.543-.156-.096-.389-.144-.7-.144-.613 0-.92.188-.92.563 0 .339.375.572 1.126.7.76.129 1.45.325 2.073.59.32.129.588.342.803.639.215.297.323.661.323 1.09 0 .715-.307 1.299-.92 1.752-.613.453-1.387.68-2.32.68-.934 0-1.712-.214-2.334-.64-.622-.425-.96-1.054-1.016-1.887h2.402c.064.467.394.7.989.7.274 0 .501-.064.68-.192a.585.585 0 0 0 .267-.494c0-.201-.148-.362-.446-.48a6.097 6.097 0 0 0-1.078-.303 14.7 14.7 0 0 1-1.27-.308 2.422 2.422 0 0 1-1.084-.646c-.298-.306-.446-.707-.446-1.201z"
             id="path444" />
        </g>
      </g>
      <g
         id="g620">
        <g
           id="g452">
          <path
             fill="#fff"
             d="M40.185 5.095l.351-.237a164.41 164.41 0 0 1 1.15-.728s.496-.294.632-.37c.137-.077 1.008-.406 1.008-.406l.651-.209s.217.828.217.852c0 .024.317 1.463.317 1.463s-.992 1.029-1.04 1.053c-.049.024-1.071.619-1.123.619-.05 0-.46.04-.59 0-.128-.04-.668-.587-.683-.836-.016-.249-.048-.458-.08-.49-.032-.033-.097-.12-.209-.129-.113-.008-.482.016-.539-.04a.687.687 0 0 1-.112-.306c.008-.032.05-.236.05-.236z"
             id="path450" />
        </g>
        <g
           id="g456">
          <path
             fill="#fff"
             d="M50.402 10.698l.03.036c1.714-1.347 9.582-7.127 18.974-7.727A28.721 28.721 0 0 0 61.742.47c-7.76.242-13.16 4.127-14.907 5.572a105.475 105.475 0 0 0 3.567 4.655z"
             id="path454" />
        </g>
        <g
           id="g460">
          <path
             fill="#fff"
             d="M39.23 33.664v-.04h-.002z"
             id="path458" />
        </g>
        <g
           id="g464">
          <path
             fill="#fff"
             d="M55.402 16.59l.29-.173.643-.868-.033-.815c-.49.386-.977.791-1.46 1.219.19.217.376.43.56.637z"
             id="path462" />
        </g>
        <g
           id="g468">
          <path
             fill="#fff"
             d="M53.942 16.056l-1.29.643-.96-.972.206 1.35-1.282.641 1.417.233.244 1.437.634-1.233.747.127c.096-.08.195-.16.3-.236l-.686-.714z"
             id="path466" />
        </g>
        <g
           id="g472">
          <path
             fill="#fff"
             d="M58.489 13.684l-.097.29-.064 1.575.643.868.482.29.065.675c1.311.544 2.124 1.397 2.632 2.242 3.305-2.204 9.568-5.45 18.716-6.379a29.08 29.08 0 0 0-4.782-5.663c-4.515.174-11.107 1.29-17.51 5.51.171.269-.085.592-.085.592z"
             id="path470" />
        </g>
        <g
           id="g476">
          <path
             fill="#fff"
             d="M47.45 22.961l-1.348.488-.843-1.072.048 1.361-1.351.49 1.383.396.078 1.456.771-1.151 1.337.39-.89-1.164z"
             id="path474" />
        </g>
        <g
           id="g480">
          <path
             fill="#fff"
             d="M44.244 26.711l-1.352.492-.837-1.074.041 1.36-1.348.49 1.38.396.084 1.456.771-1.15 1.334.386-.884-1.164z"
             id="path478" />
        </g>
        <g
           id="g484">
          <path
             fill="#fff"
             d="M47.156 12.814l.639-1.227 1.367.24-.998-1.063.672-1.272-1.289.634-.947-.975.196 1.346-1.295.631 1.42.249z"
             id="path482" />
        </g>
        <g
           id="g488">
          <path
             fill="#fff"
             d="M37.358 22.695l.066 1.455.777-1.143 1.337.399-.876-1.173.822-1.186-1.36.482-.832-1.079.035 1.36-1.35.478z"
             id="path486" />
        </g>
        <g
           id="g492">
          <path
             fill="#fff"
             d="M29.908 22.81l.766-1.149 1.342.384-.884-1.163.808-1.194-1.347.498-.843-1.08.048 1.365-1.002.36-.06.212 1.095.31z"
             id="path490" />
        </g>
        <g
           id="g496">
          <path
             fill="#fff"
             d="M44.042 16.485l.636-1.227 1.38.24-1.007-1.061.677-1.274-1.29.635-.951-.975.193 1.345-1.288.634 1.415.244z"
             id="path494" />
        </g>
        <g
           id="g500">
          <path
             fill="#fff"
             d="M40.593 30.085l-1.355.488-.84-1.072.049 1.362-1.349.488 1.384.397.078 1.457.764-1.155 1.34.39-.884-1.164z"
             id="path498" />
        </g>
        <g
           id="g504">
          <path
             fill="#fff"
             d="M35.74 12.606l.082 1.452.764-1.148 1.337.387-.885-1.162.81-1.193-1.348.49-.847-1.074.054 1.361-1.354.49z"
             id="path502" />
        </g>
        <g
           id="g508">
          <path
             fill="#fff"
             d="M32.908 17.931l.766-1.15 1.34.386-.886-1.163.806-1.19-1.34.49-.846-1.075.048 1.36-1.35.49 1.385.398z"
             id="path506" />
        </g>
        <g
           id="g512">
          <path
             fill="#fff"
             d="M31.346 32.326l.651-1.221 1.374.257-.994-1.07.69-1.266-1.298.617-.939-.987.177 1.351-1.294.614 1.419.262z"
             id="path510" />
        </g>
        <g
           id="g516">
          <path
             fill="#fff"
             d="M40.52 17.742l-1.355.478 1.38.41.07 1.457.774-1.146 1.336.394-.869-1.171.816-1.186-1.355.482-.836-1.079z"
             id="path514" />
        </g>
        <g
           id="g520">
          <path
             fill="#fff"
             d="M39.012 8.694l.242 1.436.63-1.23 1.373.23-1.015-1.055.674-1.275-1.286.64-.959-.97.208 1.35-1.29.643z"
             id="path518" />
        </g>
        <g
           id="g524">
          <path
             fill="#fff"
             d="M36.353 24.788L35 25.27l-.834-1.083.035 1.364-1.356.477 1.386.409.064 1.452.774-1.143 1.337.395-.872-1.165z"
             id="path522" />
        </g>
        <g
           id="g528">
          <path
             fill="#fff"
             d="M48.788 20.41l-1.285.639 1.42.233.248 1.436.628-1.228 1.376.23-1.016-1.057.672-1.275-1.291.642-.958-.968z"
             id="path526" />
        </g>
        <g
           id="g532">
          <path
             fill="#fff"
             d="M29.962 35.17l-.917-1.145.777-1.21-1.336.526-.605-.732c.114.893.273 1.77.466 2.636l.266-.429z"
             id="path530" />
        </g>
        <g
           id="g536">
          <path
             fill="#fff"
             d="M27.949 25.048l.68-1.271-.572.279v-.003a28.913 28.913 0 0 0-.26 1.852l1.147.208z"
             id="path534" />
        </g>
        <g
           id="g540">
          <path
             fill="red"
             d="M46.835 6.043C48.582 4.598 53.983.713 61.742.472a28.8 28.8 0 0 0-17.231 2.16 64.41 64.41 0 0 0 1.93 2.867c.129.181.263.362.394.544z"
             id="path538" />
        </g>
        <g
           id="g544">
          <path
             fill="red"
             d="M54.306 15.336c.18.21.359.414.535.617.484-.428.97-.833 1.46-1.219l-.03-.76-.097-.29s-.515-.643.385-.868c0 0 .097-.643.515-.74l-.064-.9s.321-.16.128-.772c-.193-.61 0-.675.065-.868 0 0 .177-.173.257 0 .086.184.257.257.064.868s.129.772.129.772l-.065.9c.418.097.515.74.515.74.261.065.401.166.471.276 6.404-4.22 12.995-5.336 17.51-5.51a28.996 28.996 0 0 0-6.678-4.575c-9.392.6-17.26 6.38-18.974 7.727a164.527 164.527 0 0 0 3.874 4.602z"
             id="path542" />
        </g>
        <g
           id="g548">
          <path
             fill="#214497"
             d="M29.713 30.621l1.294-.614-.177-1.35.94.986 1.297-.617-.69 1.266.994 1.07-1.374-.257-.651 1.22-.214-1.442zm1.733-14.542l1.35-.49-.048-1.36.846 1.075 1.34-.49-.805 1.19.884 1.163-1.34-.385-.765 1.149-.078-1.454zm4.207-5.721l.846 1.074 1.349-.49-.81 1.193.885 1.163-1.337-.388-.764 1.147-.082-1.45-1.387-.399 1.353-.489zM38.67 6.47l.959.97 1.285-.64-.673 1.275 1.015 1.055-1.373-.23-.63 1.23-.242-1.436-1.423-.231 1.29-.644zm4.001 10.508l-.816 1.186.869 1.17-1.336-.393-.775 1.146-.07-1.457-1.379-.41 1.355-.478-.04-1.36.837 1.079zm1.008-2.81l-.193-1.345.951.975 1.29-.635-.677 1.274 1.006 1.062-1.38-.241-.635 1.227-.235-1.439-1.415-.244zm3.116-3.671L46.6 9.15l.947.975 1.289-.634-.672 1.272.998 1.064-1.367-.24-.64 1.226-.235-1.437-1.42-.249zm4.035 8.89l-.673 1.276 1.017 1.058-1.376-.231-.628 1.229-.248-1.437-1.42-.234 1.285-.638-.206-1.348.958.969zm-4.643 5.542l-.771 1.151-.078-1.456-1.384-.395 1.352-.491-.049-1.36.844 1.072 1.349-.489-.815 1.194.889 1.164zm-3.205 3.751l-.77 1.15-.085-1.455-1.38-.396 1.348-.49-.041-1.36.837 1.074 1.352-.492-.811 1.192.884 1.164zm-3.66 3.37l-.763 1.155-.078-1.457-1.384-.397 1.349-.488-.05-1.362.841 1.071 1.355-.487-.814 1.191.884 1.163zm-2.031-11.6l.831 1.08 1.36-.483-.82 1.186.875 1.173-1.338-.399-.777 1.142-.065-1.455-1.381-.407 1.35-.477zm-2.223 6.296l-.774 1.143-.064-1.452-1.386-.409 1.355-.478-.034-1.363L35 25.27l1.353-.482-.82 1.188.873 1.166zm-6.515 8.834H32.5v-.586l.105-.001v-.184l5.595.032 1.029-.29v-.888l-.001-.038v-.199s1.608-.9 2.862.193l.033.45.546-.16.29-.804 4.687-.096-.003-.04.042-.002v-.152l.968-.06a.57.57 0 0 1 .203-.468.645.645 0 0 1 .096-.14l.038-1.433-.559-.16.574-.207.044-1.406s-.278-.341-.278-.658a.48.48 0 0 1 .131-.311.411.411 0 0 1 .248-.332v-.199s.026-.03.078-.075v-.081s.727-.584 1.138-.66l.015-1.651s-.276-.19-.26-.655a.555.555 0 0 1 .17-.367c.07-.156.218-.314.482-.458-.003-.13.038-.338.245-.579.087-.18.243-.372.51-.53.037-.243.15-.83.425-1.528a5.582 5.582 0 0 1 1.705-2.575l-.747-.127-.634 1.233-.244-1.437-1.417-.233 1.282-.641-.205-1.35.959.972 1.29-.643-.67 1.276.686.714c.317-.23.678-.438 1.088-.617l.069-.487s.03-.028.078-.067l.016-.169.193-.116c-.184-.208-.371-.42-.56-.637a35.59 35.59 0 0 0-.52.467l-4.243-5.402s.125-.105.353-.284l-.03-.036a105.66 105.66 0 0 1-3.567-4.655c-.402.332-.615.538-.615.538l-2.17-3.728c-.44.212-.877.432-1.304.666-.141.077-.282.16-.428.241l.15.147 1.277-.644-.664 1.28 1.015 1.054-1.373-.231-.63 1.23-.25-1.433-1.414-.233c-.272.182-.54.37-.805.563l-.177.13c-.402.296-.794.603-1.18.918-.14.116-.282.23-.42.349a28.006 28.006 0 0 0-1.603 1.471 27.831 27.831 0 0 0-1.03 1.072c-.3.33-.596.662-.881 1.005l-.103.123c-.17.206-.337.415-.5.626-.041.051-.08.104-.12.156a29.135 29.135 0 0 0-1.325 1.879c-.089.137-.178.274-.264.412a27.992 27.992 0 0 0-.582.976c-.073.128-.148.256-.22.386-.169.308-.336.619-.494.934l-.113.22c-.133.27-.259.544-.384.818-.063.139-.127.276-.188.416-.105.24-.204.484-.303.727a24.412 24.412 0 0 0-.455 1.203 29.937 29.937 0 0 0-.409 1.244c-.027.09-.05.182-.077.273l1.002-.36-.048-1.366.843 1.081 1.347-.498-.808 1.194.884 1.164-1.342-.385-.765 1.149-.079-1.456-1.094-.311c-.034.12-.07.239-.102.36-.064.238-.124.477-.181.718-.055.225-.108.45-.157.676-.052.24-.098.482-.145.725-.033.176-.064.353-.094.53v.004l.572-.28-.68 1.272.995 1.065-1.147-.208v.01c-.052.495-.091.993-.118 1.494v.003c-.026.502-.04 1.007-.04 1.515 0 .444.014.884.034 1.323a28.68 28.68 0 0 0 .107 1.521c.012.123.028.246.041.368.018.158.04.314.06.47l.605.731 1.336-.525-.777 1.21.917 1.145-1.349-.354-.266.429c.021.096.037.195.06.291.014.06.027.121.042.181h.105z"
             id="path546" />
        </g>
        <g
           id="g552">
          <path
             fill="#214497"
             d="M44.51 2.63l-.04.02.04-.018z"
             id="path550" />
        </g>
        <g
           id="g556">
          <path
             fill="#214497"
             d="M46.22 6.58s.213-.205.615-.537c-.131-.182-.265-.362-.394-.544a64.552 64.552 0 0 1-1.93-2.867l-.041.018c-.141.066-.28.135-.42.203z"
             id="path554" />
        </g>
        <g
           id="g560">
          <path
             fill="#214497"
             d="M50.432 10.734c-.228.179-.354.284-.354.284l4.245 5.402c.172-.159.345-.314.518-.467-.176-.203-.355-.407-.535-.617a165.224 165.224 0 0 1-3.874-4.602z"
             id="path558" />
        </g>
        <g
           id="g564">
          <path
             fill="#214497"
             d="M41.685 4.13c-.413.247-.818.507-1.22.775l-.02.013 1.26-.633z"
             id="path562" />
        </g>
        <g
           id="g568">
          <path
             fill="#214497"
             d="M40.441 4.92l.004-.002.02-.013-.024.016z"
             id="path566" />
        </g>
        <g
           id="g572">
          <path
             fill="#214497"
             d="M40.43 4.928l-.002.002z"
             id="path570" />
        </g>
        <g
           id="g576">
          <path
             fill="red"
             d="M62.99 22.301c.837.386.772 1.125.772 1.125 1.254.58.354 1.447.354 1.447l.096 1.736c.16 0 .395.117.617.252 8.24-4.743 15.676-6.294 19.276-6.792a28.785 28.785 0 0 0-3.239-6.824c-9.148.93-15.41 4.175-18.716 6.379.813 1.35.84 2.677.84 2.677z"
             id="path574" />
        </g>
        <g
           id="g580">
          <path
             fill="red"
             d="M68.727 33.044c-.477.314-.927.628-1.348.937a38.108 38.108 0 0 1 3.782-2.387c-.876.471-1.69.96-2.434 1.45z"
             id="path578" />
        </g>
        <g
           id="g584">
          <path
             fill="red"
             d="M71.16 31.594c.149-.08.303-.158.456-.237l-.001-.003s-.165.082-.454.24z"
             id="path582" />
        </g>
        <g
           id="g588">
          <path
             fill="red"
             d="M69.645 40.468h.115c.18-.063.362-.125.547-.186-.22.063-.44.119-.662.186z"
             id="path586" />
        </g>
        <g
           id="g590" />
        <g
           id="g592" />
        <g
           id="g594" />
        <g
           id="g598">
          <path
             fill="#fff"
             d="M65.434 27.606c.707.226.064 1.19.064 1.19l.032 3.247c.322.033.419.708.419.708l1.028.064v.193l1.417.03a58.746 58.746 0 0 1 16.749-8.54 28.68 28.68 0 0 0-1.038-4.43c-3.6.5-11.037 2.05-19.276 6.793a6.5 6.5 0 0 1 .605.424z"
             id="path596" />
        </g>
        <g
           id="g602">
          <path
             fill="#fff"
             d="M68.394 33.037l-1.417-.03v-.192l-1.029-.064s-.096-.675-.418-.708l-.032-3.247s.643-.964-.065-1.19v-.321s-.288-.232-.604-.424c-.222-.135-.458-.252-.617-.252l-.096-1.736s.9-.868-.354-1.447c0 0 .064-.74-.772-1.125 0 0-.027-1.327-.84-2.677-.508-.845-1.32-1.698-2.633-2.243l-.064-.675-.482-.29-.643-.867.064-1.576.096-.29s.257-.323.086-.591c-.07-.11-.21-.21-.471-.276 0 0-.097-.643-.515-.74l.065-.9s-.322-.161-.13-.772c.194-.61.023-.684-.063-.868-.08-.173-.257 0-.257 0-.065.193-.258.257-.065.868s-.128.772-.128.772l.064.9c-.418.097-.515.74-.515.74-.9.225-.386.868-.386.868l.097.29.031.76.033.815-.643.868-.289.173-.193.116-.016.169a1.595 1.595 0 0 0-.078.066l-.069.488c-.41.179-.771.387-1.088.617a5.582 5.582 0 0 0-2.005 2.811 7.302 7.302 0 0 0-.425 1.528c-.267.158-.423.35-.51.53-.207.241-.248.449-.245.579-.264.144-.411.301-.481.458a.554.554 0 0 0-.171.367c-.016.466.26.655.26.655l-.015 1.65c-.41.077-1.138.66-1.138.66v.082a1.154 1.154 0 0 0-.078.075v.2a.41.41 0 0 0-.248.33.48.48 0 0 0-.13.312c0 .317.277.657.277.657l-.043 1.406-.575.208.559.16-.038 1.434a.63.63 0 0 0-.095.139.568.568 0 0 0-.204.468l-.968.06v.152l-.042.002.003.04-4.688.095-.289.805-.546.16-.033-.45c-1.254-1.093-2.861-.193-2.861-.193v1.125l-1.03.29-5.594-.032v.184H32.5v.587h-3.946v.138h-.105c.036.15.066.302.105.452a28.693 28.693 0 0 0 1.485 4.298h30.164c.738-.88 3.491-3.987 8.19-7.43z"
             id="path600" />
        </g>
        <g
           id="g606">
          <path
             fill="#fff"
             d="M60.537 40.412l-.099.056h.054l.045-.056z"
             id="path604" />
        </g>
        <g
           id="g610">
          <path
             fill="#214497"
             d="M92.813 41.676l15.638-15.688-2.041-.394-13.832 13.803s-11.014-4.323-21.521-1.827c-6.8 1.615-8.998 4.48-8.998 4.48s9.916-7.916 30.754-.374z"
             id="path608" />
        </g>
        <g
           id="g614">
          <path
             fill="#214497"
             d="M92.249 44.158s-16.91-8.149-28.142-.88c0 0 11.875-5.61 28.34 3.163l15.884-15.44-2.034-.426z"
             id="path612" />
        </g>
        <g
           id="g618">
          <path
             fill="#214497"
             d="M92.692 34.47c-.5-.136-1.113-.284-1.821-.43l10.793-11.097a57.09 57.09 0 0 1 2.28-.042zm-5.724-1.002l9.861-10.139c.825-.102 1.654-.19 2.489-.255L88.975 33.708a36.878 36.878 0 0 0-2.007-.24zm-5.078.084zm9.118-9.376c.52-.119 1.038-.24 1.57-.347.441-.087.884-.166 1.327-.243l-9.713 9.987a41.654 41.654 0 0 0-2.302-.021zm-6.044 3.895l-5.432 5.585c-.834.06-1.7.154-2.588.273l5.607-5.765 2.025-2.082c.242-.089.494-.172.74-.258a52.76 52.76 0 0 1 2.677-.868l-2.546 2.618m-.304-3.077a58.734 58.734 0 0 0-16.749 8.54c-4.7 3.444-7.452 6.552-8.191 7.43h.235l.099-.055c17.244-9.66 32.359-3.186 32.359-3.186l15.4-15.423c-8.927-.62-16.655.61-23.153 2.694z"
             id="path616" />
        </g>
      </g>
      <path
         style="opacity:1;fill:#fefefe;fill-opacity:1;stroke-width:0.07264796"
         d="m 115.67433,62.288486 c -0.8582,-0.210534 -1.46693,-0.584054 -1.81963,-1.116541 -0.19798,-0.298893 -0.25968,-0.463883 -0.39023,-1.043582 l -0.045,-0.199782 h 1.20008 c 1.11036,0 1.20007,0.0098 1.20007,0.131704 0,0.07244 0.10008,0.227586 0.2224,0.344775 0.20173,0.193267 0.26873,0.213099 0.7209,0.213374 0.39332,2.39e-4 0.54182,-0.03192 0.70386,-0.152414 0.28497,-0.21191 0.37549,-0.493554 0.23854,-0.742167 -0.12018,-0.218148 -0.77849,-0.458835 -2.03099,-0.742555 -1.59223,-0.360673 -2.18852,-0.905358 -2.18852,-1.999096 0,-1.20188 0.97207,-2.094247 2.50467,-2.299307 1.46598,-0.196147 2.81551,0.251288 3.51195,1.16439 0.21514,0.282067 0.28038,0.446496 0.4159,1.048243 l 0.045,0.199782 h -1.191 -1.19099 l -0.0429,-0.214647 c -0.0643,-0.321704 -0.33358,-0.459622 -0.90477,-0.463474 -0.69412,-0.0047 -0.95611,0.152822 -0.9582,0.576052 -0.002,0.400624 0.25197,0.538925 1.51081,0.822765 1.74275,0.392952 2.47735,0.83921 2.70194,1.641383 0.11831,0.422538 0.0587,1.08777 -0.13064,1.458987 -0.18933,0.371121 -0.80571,0.94604 -1.20239,1.121511 -0.81035,0.358453 -2.01428,0.463181 -2.88083,0.250599 z"
         id="path636"
         inkscape:connector-curvature="0" />
      <path
         style="opacity:1;fill:#fefefe;fill-opacity:1;stroke-width:0.07264796"
         d="m 108.19159,58.511946 v -3.814018 h 1.1235 1.1235 l 0.0207,0.736096 0.0207,0.736096 0.23684,-0.365974 c 0.40904,-0.632072 0.96522,-1.021803 1.63384,-1.144886 l 0.27243,-0.05015 v 1.170452 1.170452 h -0.4227 c -0.56632,0 -1.10106,0.168561 -1.34608,0.424316 -0.36497,0.380941 -0.41066,0.706802 -0.41066,2.929036 v 2.022597 h -1.12604 -1.12604 z"
         id="path638"
         inkscape:connector-curvature="0" />
      <path
         style="opacity:1;fill:#fefefe;fill-opacity:1;stroke-width:0.07264796"
         d="m 101.66822,62.285526 c -1.32109,-0.355591 -2.328272,-1.382418 -2.634747,-2.686148 -0.04667,-0.198524 -0.08584,-0.687869 -0.08705,-1.087432 -0.0037,-1.238388 0.299275,-2.056297 1.039954,-2.807073 0.488823,-0.495479 1.088533,-0.811336 1.832093,-0.964922 1.27234,-0.262809 2.42055,-0.0097 3.44008,0.758316 0.89766,0.676209 1.48519,2.229652 1.30294,3.444986 l -0.0497,0.331496 h -2.61087 c -2.90277,0 -2.73661,-0.03266 -2.48898,0.489193 0.0706,0.148744 0.26172,0.34663 0.45405,0.470075 0.30557,0.196131 0.37663,0.211318 0.88797,0.189772 0.50086,-0.0211 0.58483,-0.04674 0.84935,-0.259314 l 0.29354,-0.235894 h 1.20785 1.20784 l -0.0493,0.163458 c -0.1972,0.653287 -1.01592,1.5573 -1.7187,1.897762 -0.82924,0.401719 -2.02552,0.524715 -2.87627,0.295725 z m 2.52773,-4.549771 c 0,-0.183537 -0.29987,-0.692569 -0.49017,-0.832054 -0.432,-0.316661 -1.11192,-0.410802 -1.56447,-0.216617 -0.3901,0.167389 -0.85128,0.745316 -0.85128,1.066787 0,0.03986 0.6002,0.06792 1.45296,0.06792 1.07093,0 1.45296,-0.02262 1.45296,-0.08604 z"
         id="path640"
         inkscape:connector-curvature="0" />
      <path
         style="opacity:1;fill:#fefefe;fill-opacity:1;stroke-width:0.07264796"
         d="m 89.884303,60.328144 v -5.630216 h 1.126043 1.126044 v 0.518477 0.518477 l 0.352921,-0.330117 c 0.458002,-0.428407 0.830909,-0.613417 1.450598,-0.719682 1.052056,-0.180407 2.074125,0.182931 2.857584,1.015852 0.799503,0.849979 1.121979,1.785702 1.056379,3.065278 -0.06438,1.255798 -0.525568,2.221558 -1.396564,2.924505 -0.643763,0.519556 -1.074487,0.663341 -1.996184,0.666369 -0.687002,0.0023 -0.803421,-0.01732 -1.171549,-0.196957 -0.22481,-0.109704 -0.561209,-0.362457 -0.747553,-0.561674 -0.186344,-0.199217 -0.353843,-0.362212 -0.37222,-0.362212 -0.01838,0 -0.03341,1.062476 -0.03341,2.361059 v 2.361058 h -1.126044 -1.126043 z m 4.839643,-0.150169 c 0.693036,-0.428472 0.985568,-1.319292 0.752405,-2.291226 -0.130781,-0.545155 -0.677585,-1.094044 -1.219367,-1.224015 -1.215904,-0.291691 -2.224431,0.707975 -2.09649,2.078069 0.06766,0.724514 0.465168,1.315624 1.065615,1.584598 0.407146,0.182384 1.06989,0.117153 1.497837,-0.147426 z"
         id="path642"
         inkscape:connector-curvature="0" />
      <path
         style="opacity:1;fill:#fefefe;fill-opacity:1;stroke-width:0.07264796"
         d="m 82.102135,62.235102 c -1.763385,-0.616545 -2.762993,-2.706895 -2.278073,-4.763835 0.162621,-0.689808 0.455803,-1.22621 0.967612,-1.770332 0.783459,-0.832921 1.805528,-1.196259 2.857584,-1.015852 0.619689,0.106265 0.992596,0.291275 1.450598,0.719682 l 0.352921,0.330117 v -0.518477 -0.518477 h 1.126044 1.126043 v 3.814018 3.814017 h -1.126043 -1.126044 v -0.544859 c 0,-0.299673 -0.01567,-0.54486 -0.03483,-0.54486 -0.01916,0 -0.170433,0.147114 -0.336173,0.326921 -0.171012,0.185526 -0.505444,0.427398 -0.773248,0.559237 -0.648698,0.319353 -1.492126,0.362434 -2.206394,0.1127 z m 2.297247,-1.933522 c 0.60986,-0.277751 1.053395,-1.031283 1.053395,-1.789634 0,-1.639172 -1.668394,-2.486487 -2.833448,-1.439003 -0.287707,0.258674 -0.387271,0.410198 -0.480694,0.731562 -0.15554,0.535039 -0.107765,1.322465 0.105477,1.738465 0.381667,0.744571 1.399484,1.102821 2.15527,0.75861 z"
         id="path644"
         inkscape:connector-curvature="0" />
      <path
         style="opacity:1;fill:#fefefe;fill-opacity:1;stroke-width:0.07264796"
         d="m 71.50437,57.525113 v -4.80085 l 2.342896,0.02882 c 2.162715,0.0266 2.379475,0.04091 2.818519,0.186068 2.075887,0.68633 2.749862,2.998735 1.350473,4.633471 -0.321704,0.375807 -0.993702,0.735162 -1.624874,0.86891 -0.297808,0.06311 -0.914509,0.104715 -1.56337,0.105479 l -1.071558,0.0013 v 1.888847 1.888847 H 72.630413 71.50437 Z m 4.068285,-0.7266 c 0.764148,-0.176013 1.093713,-0.98315 0.708318,-1.734739 -0.255559,-0.498384 -0.489211,-0.58379 -1.597122,-0.58379 h -0.927395 v 1.198691 1.198691 l 0.744642,-0.0018 c 0.409553,-9.77e-4 0.891754,-0.03566 1.071557,-0.07708 z"
         id="path646"
         inkscape:connector-curvature="0" />
      <path
         style="opacity:1;fill:#fefefe;fill-opacity:1;stroke-width:0.07264796"
         d="m 65.256645,62.349949 c -0.372566,-0.05923 -1.065537,-0.341572 -1.431625,-0.583293 -0.662119,-0.437184 -1.075331,-1.003653 -1.367926,-1.875276 -0.151722,-0.451972 -0.184227,-0.68704 -0.184818,-1.33654 -3.94e-4,-0.433461 0.03766,-0.947354 0.08456,-1.141983 0.429206,-1.780979 2.041339,-2.899085 3.975962,-2.757556 1.830063,0.133879 3.101358,1.20488 3.464405,2.918582 0.109832,0.518446 0.139903,1.250889 0.06312,1.537408 l -0.0438,0.163458 h -2.606854 c -2.928821,0 -2.769131,-0.0354 -2.432357,0.539258 0.245393,0.418731 0.63895,0.623109 1.199878,0.623109 0.49342,0 0.841933,-0.116966 1.05243,-0.353213 0.131055,-0.147087 0.203541,-0.155322 1.367045,-0.155322 h 1.228651 l -0.04944,0.163458 c -0.299895,0.99148 -1.480485,1.989889 -2.633737,2.227315 -0.366585,0.07547 -1.297,0.09236 -1.68549,0.0306 z m 2.252087,-4.640025 c 0,-0.23113 -0.303325,-0.693627 -0.57115,-0.870865 -0.306736,-0.202988 -0.863161,-0.299211 -1.279061,-0.221187 -0.43338,0.0813 -1.055707,0.746797 -1.055707,1.128937 0,0.04904 0.502608,0.07498 1.452959,0.07498 1.259794,0 1.452959,-0.01487 1.452959,-0.111866 z"
         id="path648"
         inkscape:connector-curvature="0" />
      <path
         style="opacity:1;fill:#fefefe;fill-opacity:1;stroke-width:0.07264796"
         d="m 59.073973,62.226154 c -0.636785,-0.137054 -1.08513,-0.401717 -1.352596,-0.798453 -0.379246,-0.562536 -0.404015,-0.724602 -0.437301,-2.86127 l -0.03084,-1.979656 h -0.357172 -0.357172 v -0.944424 -0.944423 h 0.363239 0.36324 v -0.9081 -0.908099 h 1.162367 1.162368 v 0.908099 0.9081 h 0.762803 0.762804 v 0.944423 0.944424 h -0.762804 -0.762803 v 1.743551 c 0,2.124591 -0.04038,2.034142 0.908099,2.034142 h 0.617508 v 0.980748 0.980747 l -0.81729,-0.0061 c -0.449509,-0.0033 -1.000511,-0.04552 -1.224449,-0.09372 z"
         id="path650"
         inkscape:connector-curvature="0" />
      <path
         style="opacity:1;fill:#fefefe;fill-opacity:1;stroke-width:0.07264796"
         d="m 52.688549,58.511946 v -3.814018 h 1.126043 1.126044 v 3.814018 3.814017 h -1.126044 -1.126043 z"
         id="path652"
         inkscape:connector-curvature="0" />
      <path
         style="opacity:1;fill:#fefefe;fill-opacity:1;stroke-width:0.07264796"
         d="m 53.209309,54.033509 c -0.468012,-0.23166 -0.70238,-0.628102 -0.70238,-1.188104 0,-0.368259 0.03593,-0.500797 0.205061,-0.756368 0.558291,-0.843633 1.856251,-0.744151 2.301896,0.176429 0.314785,0.650259 0.04034,1.459878 -0.599929,1.769829 -0.405382,0.196242 -0.805781,0.195648 -1.204648,-0.0018 z"
         id="path654"
         inkscape:connector-curvature="0" />
      <path
         style="opacity:1;fill:#fefefe;fill-opacity:1;stroke-width:0.07264796"
         d="m 43.026371,57.27693 v -5.049033 h 1.162367 1.162367 v 1.830511 1.830511 l 0.215943,-0.293637 c 0.468796,-0.637463 1.106793,-0.916308 2.108792,-0.921676 0.54867,-0.0029 0.77438,0.0295 1.101,0.158254 0.737171,0.290584 1.294687,0.854004 1.612657,1.629735 0.147922,0.360874 0.15663,0.513689 0.177907,3.121908 l 0.02237,2.74246 h -1.130052 -1.130053 v -2.290744 c 0,-2.454631 -0.01985,-2.609364 -0.384869,-3.000306 -0.280992,-0.300946 -0.561626,-0.403468 -1.104414,-0.403468 -0.542787,0 -0.823422,0.102522 -1.104414,0.403468 -0.36502,0.390942 -0.384869,0.545675 -0.384869,3.000306 v 2.290744 h -1.162367 -1.162367 z"
         id="path656"
         inkscape:connector-curvature="0" />
      <path
         style="opacity:1;fill:#fefefe;fill-opacity:1;stroke-width:0.07264796"
         d="m 30.431526,62.190307 c -0.05772,-0.168927 -2.652387,-9.358865 -2.652387,-9.394369 0,-0.01937 0.546317,-0.02625 1.214038,-0.0153 l 1.214038,0.01992 0.448435,1.852523 c 0.246638,1.018888 0.620375,2.56608 0.830525,3.438205 0.21015,0.872125 0.402306,1.552972 0.427014,1.512995 0.02471,-0.03998 0.42049,-1.594787 0.879517,-3.455133 l 0.834594,-3.382446 1.311673,-0.0012 1.311673,-0.0012 0.782486,3.250996 c 0.905485,3.762022 0.844959,3.528595 0.900532,3.473022 0.02376,-0.02376 0.355884,-1.538205 0.738064,-3.365443 l 0.694872,-3.322251 1.225123,-0.01996 1.225124,-0.01996 -0.04935,0.196613 c -0.02714,0.108137 -0.619337,2.236918 -1.31599,4.730624 -0.696653,2.493707 -1.266642,4.547337 -1.266642,4.563623 0,0.01629 -0.604795,0.02961 -1.343988,0.02961 -0.739193,0 -1.343987,-0.01355 -1.343987,-0.03011 0,-0.05163 -1.596553,-5.811933 -1.642764,-5.927025 -0.06352,-0.158192 -0.129998,0.05774 -0.978561,3.178348 l -0.755613,2.778785 h -1.328701 c -0.997981,0 -1.336424,-0.0226 -1.359729,-0.09081 z"
         id="path658"
         inkscape:connector-curvature="0" />
      <path
         style="opacity:1;fill:#fefefe;fill-opacity:1;stroke-width:0.07264796"
         d="m 21.797641,62.226631 c -0.01812,-0.02997 -0.612684,-1.689065 -1.321257,-3.686884 -0.708573,-1.997819 -1.304281,-3.67407 -1.323795,-3.725003 -0.02806,-0.07325 0.219424,-0.08843 1.184146,-0.07265 l 1.219626,0.01996 0.852298,2.783888 c 0.468764,1.531138 0.869778,2.801368 0.891143,2.822733 0.041,0.041 0.103671,-0.153477 1.127803,-3.49983 l 0.64477,-2.106791 1.216548,-0.01996 c 0.961499,-0.01577 1.209483,-5.43e-4 1.18285,0.07265 -0.01853,0.05093 -0.618962,1.751043 -1.334286,3.778023 l -1.30059,3.685419 -1.503158,0.0015 c -0.826736,8.07e-4 -1.517981,-0.02305 -1.536098,-0.05302 z"
         id="path660"
         inkscape:connector-curvature="0" />
      <path
         style="opacity:1;fill:#fefefe;fill-opacity:1;stroke-width:0.07264796"
         d="m 13.612788,62.313076 c -1.444947,-0.311459 -2.582698,-1.365694 -2.945675,-2.729448 -0.209806,-0.788274 -0.116495,-2.003055 0.213861,-2.784162 0.336118,-0.794731 1.227314,-1.579161 2.171261,-1.911143 0.687965,-0.241954 1.761469,-0.300515 2.467563,-0.134609 2.11392,0.496695 3.314472,2.45834 2.850638,4.657808 -0.444196,2.106341 -2.534011,3.38086 -4.757648,2.901554 z m 1.561931,-1.985889 c 0.586623,-0.271598 0.889773,-0.777857 0.958798,-1.601188 0.07515,-0.896439 -0.307011,-1.688289 -0.965649,-2.000833 -0.356044,-0.168954 -1.033785,-0.157313 -1.387046,0.02382 -0.608531,0.312029 -0.890529,0.851973 -0.892918,1.709679 -0.002,0.717088 0.09759,1.054446 0.42374,1.435483 0.465795,0.544176 1.236237,0.72325 1.863075,0.433034 z"
         id="path662"
         inkscape:connector-curvature="0" />
      <path
         style="opacity:1;fill:#fefefe;fill-opacity:1;stroke-width:0.07264796"
         d="M 4.2210853,62.3469 C 2.3282892,62.094865 0.70174267,60.686893 0.20057305,58.866663 0.10550709,58.521386 0.07134137,58.14058 0.0734734,57.450027 0.0760268,56.622979 0.10095741,56.430738 0.27406971,55.903217 0.65990028,54.727485 1.632501,53.623928 2.7519181,53.091737 c 0.772006,-0.367026 1.4955235,-0.499992 2.4625234,-0.452554 1.34288,0.06588 2.2747468,0.465674 3.1684162,1.359344 0.497276,0.497276 0.9092632,1.117937 1.0493263,1.580815 L 9.481646,55.7428 8.114601,55.7384 6.7475561,55.734 6.5295576,55.429685 c -0.3328348,-0.46462 -0.8636839,-0.703878 -1.5617177,-0.703878 -0.3052341,0 -0.7161896,0.04852 -0.9132345,0.107833 -1.1124449,0.334833 -1.7980559,1.553688 -1.6773283,2.981894 0.066925,0.791719 0.2867303,1.301835 0.7685753,1.78368 0.5220662,0.522066 0.9577684,0.684891 1.8218287,0.680829 0.9684822,-0.0046 1.5538433,-0.35562 1.9325522,-1.159035 L 7.0714549,58.757691 5.6926521,58.73796 4.3138492,58.718229 v -0.870207 -0.870206 h 2.5790025 2.5790025 v 0.978022 c 0,1.149852 -0.092148,1.47373 -0.6614866,2.324961 -1.0311207,1.541653 -2.7423121,2.312034 -4.5892823,2.066101 z"
         id="path664"
         inkscape:connector-curvature="0" />
    </g>
  </g>
</svg>
