<svg xmlns="http://www.w3.org/2000/svg" width="120" height="66" viewBox="0 0 120 66"><g><g><g><g><path d="M1.435 61.037C.478 60.108 0 58.93 0 57.502s.478-2.606 1.435-3.535c.956-.93 2.125-1.394 3.507-1.394 1.071 0 2.023.284 2.856.852.833.567 1.414 1.354 1.744 2.36H6.74c-.365-.704-.951-1.056-1.756-1.056-.806 0-1.44.251-1.902.755-.462.503-.693 1.176-.693 2.018 0 .842.23 1.514.693 2.018.462.504 1.082.755 1.86.755.559 0 1.014-.14 1.366-.419a2.02 2.02 0 0 0 .707-1.118H4.297v-1.785h5.244v1.785c-.174.878-.654 1.697-1.44 2.457a4.34 4.34 0 0 1-1.394.892 4.567 4.567 0 0 1-1.765.343c-1.382 0-2.55-.464-3.507-1.393z"/></g><g><path d="M14.525 60.44c-.44 0-.822-.165-1.147-.494-.325-.33-.487-.806-.487-1.428 0-.623.158-1.096.474-1.421a1.525 1.525 0 0 1 1.132-.487c.44 0 .82.162 1.14.487.32.325.48.798.48 1.42 0 .623-.156 1.1-.467 1.429-.31.33-.686.494-1.125.494zm0 2.004c1.134 0 2.082-.361 2.841-1.084.76-.723 1.14-1.675 1.14-2.856 0-1.18-.382-2.126-1.146-2.835-.765-.71-1.714-1.064-2.849-1.064-1.135 0-2.087.355-2.856 1.064-.768.71-1.153 1.654-1.153 2.835 0 1.18.387 2.133 1.16 2.856.774.723 1.728 1.084 2.863 1.084z"/></g><g><path d="M19.072 54.687h2.498l1.744 5.698 1.744-5.698h2.498l-2.718 7.66H21.79z"/></g><g><path d="M39.351 52.71h2.526l-2.69 9.638h-2.691l-1.69-6.11-1.674 6.11h-2.691l-2.732-9.637h2.513l1.674 6.933 1.717-6.933h2.663l1.647 6.823z"/></g><g><path d="M45.372 52.189v3.624c.485-.805 1.258-1.208 2.32-1.208.879 0 1.59.293 2.135.879.545.585.817 1.382.817 2.388v4.476H48.31v-4.16c0-.494-.13-.876-.391-1.146-.261-.27-.62-.405-1.078-.405-.458 0-.817.135-1.078.405-.26.27-.39.652-.39 1.146v4.16h-2.349V52.189z"/></g><g><path d="M52.646 62.348v-7.66h2.347v7.66zm2.141-8.525c-.265.265-.59.397-.974.397s-.71-.132-.975-.397a1.332 1.332 0 0 1-.398-.982c0-.389.132-.716.398-.982.265-.265.59-.398.975-.398.384 0 .709.133.974.398.266.266.399.593.399.982s-.133.716-.399.982z"/></g><g><path d="M60.314 60.357h.838v1.99h-1.195c-.86 0-1.526-.189-1.998-.569-.47-.38-.706-1.031-.706-1.956v-3.185h-.714v-1.95h.714V52.82H59.6v1.867h1.538v1.95H59.6v3.185c0 .357.238.535.714.535z"/></g><g><path d="M67.492 57.818h-2.87c.064-.357.224-.648.481-.872.256-.224.572-.336.947-.336s.7.112.975.336c.274.224.43.515.467.872zm-1.47 4.626c.907 0 1.69-.235 2.348-.707a3.364 3.364 0 0 0 1.318-1.86h-2.54c-.11.137-.199.236-.267.295-.069.06-.176.119-.323.179-.146.06-.368.089-.666.089-.297 0-.574-.108-.83-.323a1.265 1.265 0 0 1-.453-.83h5.271c.037-.23.055-.476.055-.742 0-1.235-.37-2.2-1.112-2.897-.74-.695-1.675-1.043-2.8-1.043-1.126 0-2.044.353-2.753 1.057-.71.705-1.064 1.652-1.064 2.842 0 1.19.357 2.144 1.07 2.862.715.72 1.63 1.078 2.746 1.078z"/></g><g><path d="M73.807 54.495h1.455c.348 0 .627.11.838.33.21.22.316.5.316.844 0 .343-.104.62-.31.83-.205.211-.486.316-.844.316h-1.455zm4.064-.92c-.623-.576-1.492-.864-2.609-.864H71.46v9.637h2.347V58.6h1.455c.668 0 1.247-.098 1.737-.295.49-.197.858-.45 1.105-.762.467-.604.7-1.23.7-1.88 0-.816-.31-1.51-.933-2.088z"/></g><g><path d="M83.733 60.412c-.44 0-.828-.162-1.167-.487-.339-.325-.508-.79-.508-1.393 0-.605.17-1.071.508-1.4.339-.33.728-.495 1.167-.495.44 0 .828.163 1.167.487.339.325.508.79.508 1.394 0 .604-.17 1.07-.508 1.4-.339.33-.728.494-1.167.494zm-3.048.934c.678.732 1.492 1.098 2.444 1.098s1.711-.403 2.279-1.208v1.112h2.347v-7.66h-2.347v1.002c-.522-.723-1.27-1.085-2.245-1.085-.975 0-1.8.369-2.478 1.105-.677.737-1.016 1.677-1.016 2.822 0 1.144.339 2.082 1.016 2.814z"/></g><g><path d="M93.853 60.412c-.44 0-.828-.164-1.167-.494-.339-.33-.508-.796-.508-1.4 0-.604.17-1.069.508-1.394.339-.324.728-.487 1.167-.487.44 0 .828.165 1.167.494.338.33.508.796.508 1.4 0 .605-.17 1.07-.508 1.394-.339.325-.728.487-1.167.487zm-1.675-5.724h-2.347V66h2.347v-4.764c.55.806 1.304 1.208 2.265 1.208.962 0 1.78-.366 2.458-1.098.677-.732 1.016-1.67 1.016-2.814 0-1.145-.34-2.085-1.016-2.822-.678-.736-1.504-1.105-2.478-1.105-.975 0-1.723.362-2.245 1.085z"/></g><g><path d="M103.704 56.946c.275.224.43.515.467.872h-2.869c.064-.357.224-.648.48-.872.256-.224.572-.336.948-.336.375 0 .7.112.974.336zm-1.002 5.498c.907 0 1.689-.235 2.348-.707a3.364 3.364 0 0 0 1.318-1.86h-2.54c-.11.137-.2.236-.268.295-.069.06-.176.119-.322.179-.147.06-.37.089-.666.089-.298 0-.575-.108-.83-.323a1.267 1.267 0 0 1-.454-.83h5.272c.036-.23.055-.476.055-.742 0-1.235-.37-2.2-1.112-2.897-.742-.695-1.675-1.043-2.8-1.043-1.127 0-2.045.353-2.754 1.057-.709.705-1.064 1.652-1.064 2.842 0 1.19.357 2.144 1.071 2.862.714.72 1.63 1.078 2.746 1.078z"/></g><g><path d="M110.472 54.688v1.427c.55-1.006 1.28-1.51 2.197-1.51v2.389h-.577c-.54 0-.945.128-1.215.384-.27.256-.405.705-.405 1.346v3.624h-2.348v-7.66z"/></g><g><path d="M113.424 56.994c0-.677.288-1.245.865-1.702.577-.458 1.356-.687 2.34-.687.984 0 1.778.224 2.382.673.604.449.925 1.062.962 1.84h-2.403c-.028-.266-.12-.447-.275-.543-.156-.096-.389-.144-.7-.144-.613 0-.92.188-.92.563 0 .339.375.572 1.126.7.76.129 1.45.325 2.073.59.32.129.588.342.803.639.215.297.323.661.323 1.09 0 .715-.307 1.299-.92 1.752-.613.453-1.387.68-2.32.68-.934 0-1.712-.214-2.334-.64-.622-.425-.96-1.054-1.016-1.887h2.402c.064.467.394.7.989.7.274 0 .501-.064.68-.192a.585.585 0 0 0 .267-.494c0-.201-.148-.362-.446-.48a6.097 6.097 0 0 0-1.078-.303 14.7 14.7 0 0 1-1.27-.308 2.422 2.422 0 0 1-1.084-.646c-.298-.306-.446-.707-.446-1.201z"/></g></g><g><g><path fill="#fff" d="M40.185 5.095l.351-.237a164.41 164.41 0 0 1 1.15-.728s.496-.294.632-.37c.137-.077 1.008-.406 1.008-.406l.651-.209s.217.828.217.852c0 .024.317 1.463.317 1.463s-.992 1.029-1.04 1.053c-.049.024-1.071.619-1.123.619-.05 0-.46.04-.59 0-.128-.04-.668-.587-.683-.836-.016-.249-.048-.458-.08-.49-.032-.033-.097-.12-.209-.129-.113-.008-.482.016-.539-.04a.687.687 0 0 1-.112-.306c.008-.032.05-.236.05-.236z"/></g><g><path fill="#fff" d="M50.402 10.698l.03.036c1.714-1.347 9.582-7.127 18.974-7.727A28.721 28.721 0 0 0 61.742.47c-7.76.242-13.16 4.127-14.907 5.572a105.475 105.475 0 0 0 3.567 4.655z"/></g><g><path fill="#fff" d="M39.23 33.664v-.04h-.002z"/></g><g><path fill="#fff" d="M55.402 16.59l.29-.173.643-.868-.033-.815c-.49.386-.977.791-1.46 1.219.19.217.376.43.56.637z"/></g><g><path fill="#fff" d="M53.942 16.056l-1.29.643-.96-.972.206 1.35-1.282.641 1.417.233.244 1.437.634-1.233.747.127c.096-.08.195-.16.3-.236l-.686-.714z"/></g><g><path fill="#fff" d="M58.489 13.684l-.097.29-.064 1.575.643.868.482.29.065.675c1.311.544 2.124 1.397 2.632 2.242 3.305-2.204 9.568-5.45 18.716-6.379a29.08 29.08 0 0 0-4.782-5.663c-4.515.174-11.107 1.29-17.51 5.51.171.269-.085.592-.085.592z"/></g><g><path fill="#fff" d="M47.45 22.961l-1.348.488-.843-1.072.048 1.361-1.351.49 1.383.396.078 1.456.771-1.151 1.337.39-.89-1.164z"/></g><g><path fill="#fff" d="M44.244 26.711l-1.352.492-.837-1.074.041 1.36-1.348.49 1.38.396.084 1.456.771-1.15 1.334.386-.884-1.164z"/></g><g><path fill="#fff" d="M47.156 12.814l.639-1.227 1.367.24-.998-1.063.672-1.272-1.289.634-.947-.975.196 1.346-1.295.631 1.42.249z"/></g><g><path fill="#fff" d="M37.358 22.695l.066 1.455.777-1.143 1.337.399-.876-1.173.822-1.186-1.36.482-.832-1.079.035 1.36-1.35.478z"/></g><g><path fill="#fff" d="M29.908 22.81l.766-1.149 1.342.384-.884-1.163.808-1.194-1.347.498-.843-1.08.048 1.365-1.002.36-.06.212 1.095.31z"/></g><g><path fill="#fff" d="M44.042 16.485l.636-1.227 1.38.24-1.007-1.061.677-1.274-1.29.635-.951-.975.193 1.345-1.288.634 1.415.244z"/></g><g><path fill="#fff" d="M40.593 30.085l-1.355.488-.84-1.072.049 1.362-1.349.488 1.384.397.078 1.457.764-1.155 1.34.39-.884-1.164z"/></g><g><path fill="#fff" d="M35.74 12.606l.082 1.452.764-1.148 1.337.387-.885-1.162.81-1.193-1.348.49-.847-1.074.054 1.361-1.354.49z"/></g><g><path fill="#fff" d="M32.908 17.931l.766-1.15 1.34.386-.886-1.163.806-1.19-1.34.49-.846-1.075.048 1.36-1.35.49 1.385.398z"/></g><g><path fill="#fff" d="M31.346 32.326l.651-1.221 1.374.257-.994-1.07.69-1.266-1.298.617-.939-.987.177 1.351-1.294.614 1.419.262z"/></g><g><path fill="#fff" d="M40.52 17.742l-1.355.478 1.38.41.07 1.457.774-1.146 1.336.394-.869-1.171.816-1.186-1.355.482-.836-1.079z"/></g><g><path fill="#fff" d="M39.012 8.694l.242 1.436.63-1.23 1.373.23-1.015-1.055.674-1.275-1.286.64-.959-.97.208 1.35-1.29.643z"/></g><g><path fill="#fff" d="M36.353 24.788L35 25.27l-.834-1.083.035 1.364-1.356.477 1.386.409.064 1.452.774-1.143 1.337.395-.872-1.165z"/></g><g><path fill="#fff" d="M48.788 20.41l-1.285.639 1.42.233.248 1.436.628-1.228 1.376.23-1.016-1.057.672-1.275-1.291.642-.958-.968z"/></g><g><path fill="#fff" d="M29.962 35.17l-.917-1.145.777-1.21-1.336.526-.605-.732c.114.893.273 1.77.466 2.636l.266-.429z"/></g><g><path fill="#fff" d="M27.949 25.048l.68-1.271-.572.279v-.003a28.913 28.913 0 0 0-.26 1.852l1.147.208z"/></g><g><path fill="red" d="M46.835 6.043C48.582 4.598 53.983.713 61.742.472a28.8 28.8 0 0 0-17.231 2.16 64.41 64.41 0 0 0 1.93 2.867c.129.181.263.362.394.544z"/></g><g><path fill="red" d="M54.306 15.336c.18.21.359.414.535.617.484-.428.97-.833 1.46-1.219l-.03-.76-.097-.29s-.515-.643.385-.868c0 0 .097-.643.515-.74l-.064-.9s.321-.16.128-.772c-.193-.61 0-.675.065-.868 0 0 .177-.173.257 0 .086.184.257.257.064.868s.129.772.129.772l-.065.9c.418.097.515.74.515.74.261.065.401.166.471.276 6.404-4.22 12.995-5.336 17.51-5.51a28.996 28.996 0 0 0-6.678-4.575c-9.392.6-17.26 6.38-18.974 7.727a164.527 164.527 0 0 0 3.874 4.602z"/></g><g><path fill="#214497" d="M29.713 30.621l1.294-.614-.177-1.35.94.986 1.297-.617-.69 1.266.994 1.07-1.374-.257-.651 1.22-.214-1.442zm1.733-14.542l1.35-.49-.048-1.36.846 1.075 1.34-.49-.805 1.19.884 1.163-1.34-.385-.765 1.149-.078-1.454zm4.207-5.721l.846 1.074 1.349-.49-.81 1.193.885 1.163-1.337-.388-.764 1.147-.082-1.45-1.387-.399 1.353-.489zM38.67 6.47l.959.97 1.285-.64-.673 1.275 1.015 1.055-1.373-.23-.63 1.23-.242-1.436-1.423-.231 1.29-.644zm4.001 10.508l-.816 1.186.869 1.17-1.336-.393-.775 1.146-.07-1.457-1.379-.41 1.355-.478-.04-1.36.837 1.079zm1.008-2.81l-.193-1.345.951.975 1.29-.635-.677 1.274 1.006 1.062-1.38-.241-.635 1.227-.235-1.439-1.415-.244zm3.116-3.671L46.6 9.15l.947.975 1.289-.634-.672 1.272.998 1.064-1.367-.24-.64 1.226-.235-1.437-1.42-.249zm4.035 8.89l-.673 1.276 1.017 1.058-1.376-.231-.628 1.229-.248-1.437-1.42-.234 1.285-.638-.206-1.348.958.969zm-4.643 5.542l-.771 1.151-.078-1.456-1.384-.395 1.352-.491-.049-1.36.844 1.072 1.349-.489-.815 1.194.889 1.164zm-3.205 3.751l-.77 1.15-.085-1.455-1.38-.396 1.348-.49-.041-1.36.837 1.074 1.352-.492-.811 1.192.884 1.164zm-3.66 3.37l-.763 1.155-.078-1.457-1.384-.397 1.349-.488-.05-1.362.841 1.071 1.355-.487-.814 1.191.884 1.163zm-2.031-11.6l.831 1.08 1.36-.483-.82 1.186.875 1.173-1.338-.399-.777 1.142-.065-1.455-1.381-.407 1.35-.477zm-2.223 6.296l-.774 1.143-.064-1.452-1.386-.409 1.355-.478-.034-1.363L35 25.27l1.353-.482-.82 1.188.873 1.166zm-6.515 8.834H32.5v-.586l.105-.001v-.184l5.595.032 1.029-.29v-.888l-.001-.038v-.199s1.608-.9 2.862.193l.033.45.546-.16.29-.804 4.687-.096-.003-.04.042-.002v-.152l.968-.06a.57.57 0 0 1 .203-.468.645.645 0 0 1 .096-.14l.038-1.433-.559-.16.574-.207.044-1.406s-.278-.341-.278-.658a.48.48 0 0 1 .131-.311.411.411 0 0 1 .248-.332v-.199s.026-.03.078-.075v-.081s.727-.584 1.138-.66l.015-1.651s-.276-.19-.26-.655a.555.555 0 0 1 .17-.367c.07-.156.218-.314.482-.458-.003-.13.038-.338.245-.579.087-.18.243-.372.51-.53.037-.243.15-.83.425-1.528a5.582 5.582 0 0 1 1.705-2.575l-.747-.127-.634 1.233-.244-1.437-1.417-.233 1.282-.641-.205-1.35.959.972 1.29-.643-.67 1.276.686.714c.317-.23.678-.438 1.088-.617l.069-.487s.03-.028.078-.067l.016-.169.193-.116c-.184-.208-.371-.42-.56-.637a35.59 35.59 0 0 0-.52.467l-4.243-5.402s.125-.105.353-.284l-.03-.036a105.66 105.66 0 0 1-3.567-4.655c-.402.332-.615.538-.615.538l-2.17-3.728c-.44.212-.877.432-1.304.666-.141.077-.282.16-.428.241l.15.147 1.277-.644-.664 1.28 1.015 1.054-1.373-.231-.63 1.23-.25-1.433-1.414-.233c-.272.182-.54.37-.805.563l-.177.13c-.402.296-.794.603-1.18.918-.14.116-.282.23-.42.349a28.006 28.006 0 0 0-1.603 1.471 27.831 27.831 0 0 0-1.03 1.072c-.3.33-.596.662-.881 1.005l-.103.123c-.17.206-.337.415-.5.626-.041.051-.08.104-.12.156a29.135 29.135 0 0 0-1.325 1.879c-.089.137-.178.274-.264.412a27.992 27.992 0 0 0-.582.976c-.073.128-.148.256-.22.386-.169.308-.336.619-.494.934l-.113.22c-.133.27-.259.544-.384.818-.063.139-.127.276-.188.416-.105.24-.204.484-.303.727a24.412 24.412 0 0 0-.455 1.203 29.937 29.937 0 0 0-.409 1.244c-.027.09-.05.182-.077.273l1.002-.36-.048-1.366.843 1.081 1.347-.498-.808 1.194.884 1.164-1.342-.385-.765 1.149-.079-1.456-1.094-.311c-.034.12-.07.239-.102.36-.064.238-.124.477-.181.718-.055.225-.108.45-.157.676-.052.24-.098.482-.145.725-.033.176-.064.353-.094.53v.004l.572-.28-.68 1.272.995 1.065-1.147-.208v.01c-.052.495-.091.993-.118 1.494v.003c-.026.502-.04 1.007-.04 1.515 0 .444.014.884.034 1.323a28.68 28.68 0 0 0 .107 1.521c.012.123.028.246.041.368.018.158.04.314.06.47l.605.731 1.336-.525-.777 1.21.917 1.145-1.349-.354-.266.429c.021.096.037.195.06.291.014.06.027.121.042.181h.105z"/></g><g><path fill="#214497" d="M44.51 2.63l-.04.02.04-.018z"/></g><g><path fill="#214497" d="M46.22 6.58s.213-.205.615-.537c-.131-.182-.265-.362-.394-.544a64.552 64.552 0 0 1-1.93-2.867l-.041.018c-.141.066-.28.135-.42.203z"/></g><g><path fill="#214497" d="M50.432 10.734c-.228.179-.354.284-.354.284l4.245 5.402c.172-.159.345-.314.518-.467-.176-.203-.355-.407-.535-.617a165.224 165.224 0 0 1-3.874-4.602z"/></g><g><path fill="#214497" d="M41.685 4.13c-.413.247-.818.507-1.22.775l-.02.013 1.26-.633z"/></g><g><path fill="#214497" d="M40.441 4.92l.004-.002.02-.013-.024.016z"/></g><g><path fill="#214497" d="M40.43 4.928l-.002.002z"/></g><g><path fill="red" d="M62.99 22.301c.837.386.772 1.125.772 1.125 1.254.58.354 1.447.354 1.447l.096 1.736c.16 0 .395.117.617.252 8.24-4.743 15.676-6.294 19.276-6.792a28.785 28.785 0 0 0-3.239-6.824c-9.148.93-15.41 4.175-18.716 6.379.813 1.35.84 2.677.84 2.677z"/></g><g><path fill="red" d="M68.727 33.044c-.477.314-.927.628-1.348.937a38.108 38.108 0 0 1 3.782-2.387c-.876.471-1.69.96-2.434 1.45z"/></g><g><path fill="red" d="M71.16 31.594c.149-.08.303-.158.456-.237l-.001-.003s-.165.082-.454.24z"/></g><g><path fill="red" d="M69.645 40.468h.115c.18-.063.362-.125.547-.186-.22.063-.44.119-.662.186z"/></g><g/><g/><g/><g><path fill="#fff" d="M65.434 27.606c.707.226.064 1.19.064 1.19l.032 3.247c.322.033.419.708.419.708l1.028.064v.193l1.417.03a58.746 58.746 0 0 1 16.749-8.54 28.68 28.68 0 0 0-1.038-4.43c-3.6.5-11.037 2.05-19.276 6.793a6.5 6.5 0 0 1 .605.424z"/></g><g><path fill="#fff" d="M68.394 33.037l-1.417-.03v-.192l-1.029-.064s-.096-.675-.418-.708l-.032-3.247s.643-.964-.065-1.19v-.321s-.288-.232-.604-.424c-.222-.135-.458-.252-.617-.252l-.096-1.736s.9-.868-.354-1.447c0 0 .064-.74-.772-1.125 0 0-.027-1.327-.84-2.677-.508-.845-1.32-1.698-2.633-2.243l-.064-.675-.482-.29-.643-.867.064-1.576.096-.29s.257-.323.086-.591c-.07-.11-.21-.21-.471-.276 0 0-.097-.643-.515-.74l.065-.9s-.322-.161-.13-.772c.194-.61.023-.684-.063-.868-.08-.173-.257 0-.257 0-.065.193-.258.257-.065.868s-.128.772-.128.772l.064.9c-.418.097-.515.74-.515.74-.9.225-.386.868-.386.868l.097.29.031.76.033.815-.643.868-.289.173-.193.116-.016.169a1.595 1.595 0 0 0-.078.066l-.069.488c-.41.179-.771.387-1.088.617a5.582 5.582 0 0 0-2.005 2.811 7.302 7.302 0 0 0-.425 1.528c-.267.158-.423.35-.51.53-.207.241-.248.449-.245.579-.264.144-.411.301-.481.458a.554.554 0 0 0-.171.367c-.016.466.26.655.26.655l-.015 1.65c-.41.077-1.138.66-1.138.66v.082a1.154 1.154 0 0 0-.078.075v.2a.41.41 0 0 0-.248.33.48.48 0 0 0-.13.312c0 .317.277.657.277.657l-.043 1.406-.575.208.559.16-.038 1.434a.63.63 0 0 0-.095.139.568.568 0 0 0-.204.468l-.968.06v.152l-.042.002.003.04-4.688.095-.289.805-.546.16-.033-.45c-1.254-1.093-2.861-.193-2.861-.193v1.125l-1.03.29-5.594-.032v.184H32.5v.587h-3.946v.138h-.105c.036.15.066.302.105.452a28.693 28.693 0 0 0 1.485 4.298h30.164c.738-.88 3.491-3.987 8.19-7.43z"/></g><g><path fill="#fff" d="M60.537 40.412l-.099.056h.054l.045-.056z"/></g><g><path fill="#214497" d="M92.813 41.676l15.638-15.688-2.041-.394-13.832 13.803s-11.014-4.323-21.521-1.827c-6.8 1.615-8.998 4.48-8.998 4.48s9.916-7.916 30.754-.374z"/></g><g><path fill="#214497" d="M92.249 44.158s-16.91-8.149-28.142-.88c0 0 11.875-5.61 28.34 3.163l15.884-15.44-2.034-.426z"/></g><g><path fill="#214497" d="M92.692 34.47c-.5-.136-1.113-.284-1.821-.43l10.793-11.097a57.09 57.09 0 0 1 2.28-.042zm-5.724-1.002l9.861-10.139c.825-.102 1.654-.19 2.489-.255L88.975 33.708a36.878 36.878 0 0 0-2.007-.24zm-5.078.084zm9.118-9.376c.52-.119 1.038-.24 1.57-.347.441-.087.884-.166 1.327-.243l-9.713 9.987a41.654 41.654 0 0 0-2.302-.021zm-6.044 3.895l-5.432 5.585c-.834.06-1.7.154-2.588.273l5.607-5.765 2.025-2.082c.242-.089.494-.172.74-.258a52.76 52.76 0 0 1 2.677-.868l-2.546 2.618m-.304-3.077a58.734 58.734 0 0 0-16.749 8.54c-4.7 3.444-7.452 6.552-8.191 7.43h.235l.099-.055c17.244-9.66 32.359-3.186 32.359-3.186l15.4-15.423c-8.927-.62-16.655.61-23.153 2.694z"/></g></g></g></g></svg>