<svg xmlns="http://www.w3.org/2000/svg" width="16" height="16" viewBox="0 0 16 16"><defs><clipPath id="jwcsa"><path fill="#fff" d="M0 1c0-.5.5-1 1-1h5c.5 0 1 .5 1 1v5c0 .5-.5 1-1 1H1c-.5 0-1-.5-1-1z"/></clipPath><clipPath id="jwcsb"><path fill="#fff" d="M0 10c0-.5.5-1 1-1h5c.5 0 1 .5 1 1v5c0 .5-.5 1-1 1H1c-.5 0-1-.5-1-1z"/></clipPath><clipPath id="jwcsc"><path fill="#fff" d="M9 1c0-.5.5-1 1-1h5c.5 0 1 .5 1 1v5c0 .5-.5 1-1 1h-5c-.5 0-1-.5-1-1z"/></clipPath><clipPath id="jwcsd"><path fill="#fff" d="M9 10c0-.5.5-1 1-1h5c.5 0 1 .5 1 1v5c0 .5-.5 1-1 1h-5c-.5 0-1-.5-1-1z"/></clipPath></defs><g><g opacity="-1"><g><path fill="none" stroke="#2aabe3" stroke-miterlimit="20" stroke-width="2.6" d="M0 1c0-.5.5-1 1-1h5c.5 0 1 .5 1 1v5c0 .5-.5 1-1 1H1c-.5 0-1-.5-1-1z" clip-path="url(&quot;#jwcsa&quot;)"/></g><g><path fill="none" stroke="#2aabe3" stroke-miterlimit="20" stroke-width="2.6" d="M0 10c0-.5.5-1 1-1h5c.5 0 1 .5 1 1v5c0 .5-.5 1-1 1H1c-.5 0-1-.5-1-1z" clip-path="url(&quot;#jwcsb&quot;)"/></g><g><path fill="none" stroke="#2aabe3" stroke-miterlimit="20" stroke-width="2.6" d="M9 1c0-.5.5-1 1-1h5c.5 0 1 .5 1 1v5c0 .5-.5 1-1 1h-5c-.5 0-1-.5-1-1z" clip-path="url(&quot;#jwcsc&quot;)"/></g><g><path fill="none" stroke="#2aabe3" stroke-miterlimit="20" stroke-width="2.6" d="M9 10c0-.5.5-1 1-1h5c.5 0 1 .5 1 1v5c0 .5-.5 1-1 1h-5c-.5 0-1-.5-1-1z" clip-path="url(&quot;#jwcsd&quot;)"/></g></g></g></svg>