<svg xmlns="http://www.w3.org/2000/svg" width="47" height="62" viewBox="0 0 47 62">
  <path id="military_icon" data-name="military icon" d="M63.556,75.541a1.3,1.3,0,0,0,.518-1.27L62.841,67.08l5.212-5.092a1.3,1.3,0,0,0-.718-2.215l-7.2-1.049-3.221-6.542a1.293,1.293,0,0,0-2.323,0l-3.221,6.542-7.2,1.049a1.3,1.3,0,0,0-.718,2.215l5.212,5.092-1.23,7.188a1.3,1.3,0,0,0,1.881,1.371l6.439-3.395,6.439,3.395a1.289,1.289,0,0,0,1.364-.1Zm-8.409-5.912-4.721,2.488.9-5.268a1.3,1.3,0,0,0-.37-1.149l-3.82-3.732,5.279-.769a1.293,1.293,0,0,0,.975-.711l2.359-4.8,2.36,4.8a1.3,1.3,0,0,0,.976.711l5.28.769L60.544,65.7a1.3,1.3,0,0,0-.37,1.149l.9,5.268-4.721-2.488a1.293,1.293,0,0,0-1.206,0ZM78.592,41.918a1.3,1.3,0,0,0,.658-1.131V31.562a1.3,1.3,0,0,0-.627-1.113,142.3,142.3,0,0,1-22-16.324,1.294,1.294,0,0,0-1.738,0,142.3,142.3,0,0,1-22,16.323,1.3,1.3,0,0,0-.627,1.113V40.79A1.3,1.3,0,0,0,34.214,41.9,145.246,145.246,0,0,0,55.75,26.065,145.266,145.266,0,0,0,77.289,41.9a1.293,1.293,0,0,0,1.306.019ZM55.75,16.84A145.076,145.076,0,0,0,76.659,32.294v6.178a141.725,141.725,0,0,1-20.04-15.114,1.294,1.294,0,0,0-1.738,0,141.779,141.779,0,0,1-20.04,15.114V32.294A145.05,145.05,0,0,0,55.75,16.84ZM78.592,60.377a1.3,1.3,0,0,0,.658-1.131V50.018a1.3,1.3,0,0,0-.627-1.113,142.3,142.3,0,0,1-22-16.323,1.294,1.294,0,0,0-1.738,0,142.3,142.3,0,0,1-22,16.323,1.3,1.3,0,0,0-.627,1.113v9.228a1.3,1.3,0,0,0,1.964,1.113c2.126-1.284,4.241-2.634,6.285-4.011a1.3,1.3,0,0,0-1.445-2.155c-1.378.929-2.789,1.845-4.214,2.736v-6.18A145.1,145.1,0,0,0,55.75,35.293,145.126,145.126,0,0,0,76.659,50.748v6.178a141.725,141.725,0,0,1-20.04-15.114,1.294,1.294,0,0,0-1.738,0c-2.9,2.629-5.973,5.182-9.136,7.588a1.3,1.3,0,0,0,1.567,2.07c2.908-2.213,5.743-4.546,8.438-6.949A145.266,145.266,0,0,0,77.289,60.358a1.293,1.293,0,0,0,1.306.019Z" transform="translate(79.25 75.79) rotate(180)" fill="#1c1c1c"/>
</svg>
