<svg xmlns="http://www.w3.org/2000/svg" width="18" height="14" viewBox="0 0 18 14"><g><g><path fill="#fff" d="M11.774 1.18a.54.54 0 0 0-.806 0 .636.636 0 0 0 0 .852l4.089 4.361H1.564c-.314 0-.564.267-.564.603 0 .335.25.61.564.61h13.493l-4.09 4.353a.647.647 0 0 0 0 .86.54.54 0 0 0 .807 0l5.057-5.393a.62.62 0 0 0 0-.851z"/><path fill="none" stroke="#fff" stroke-miterlimit="20" d="M11.774 1.18a.54.54 0 0 0-.806 0 .636.636 0 0 0 0 .852l4.089 4.361v0H1.564c-.314 0-.564.267-.564.603 0 .335.25.61.564.61h13.493v0l-4.09 4.353a.647.647 0 0 0 0 .86.54.54 0 0 0 .807 0l5.057-5.393a.62.62 0 0 0 0-.851z"/></g></g></svg>