<svg id="security_icon" data-name="security icon" xmlns="http://www.w3.org/2000/svg" width="55" height="62" viewBox="0 0 55 62">
  <g id="Group_800" data-name="Group 800">
    <g id="Group_799" data-name="Group 799">
      <path id="Path_711" data-name="Path 711" d="M80.1,10.731A110.711,110.711,0,0,1,54.082.153a1.183,1.183,0,0,0-1.166,0A107.681,107.681,0,0,1,26.895,10.731,1.208,1.208,0,0,0,26,11.9V25.271A37.669,37.669,0,0,0,38.156,53.323C44.105,58.91,51,62,53.5,62s9.394-3.09,15.343-8.677A37.67,37.67,0,0,0,81,25.271V11.9A1.209,1.209,0,0,0,80.1,10.731ZM67.216,51.546a39.007,39.007,0,0,1-8.6,6.142A15.284,15.284,0,0,1,53.5,59.577a15.282,15.282,0,0,1-5.114-1.889,39.015,39.015,0,0,1-8.6-6.142A35.288,35.288,0,0,1,28.39,25.271V12.837A109.864,109.864,0,0,0,53.5,2.6,113.313,113.313,0,0,0,78.607,12.836V25.271h0A35.289,35.289,0,0,1,67.216,51.546Z" transform="translate(-25.999 0)" fill="#1c1c1c"/>
    </g>
  </g>
  <g id="Group_802" data-name="Group 802" transform="translate(4.243 4.832)">
    <g id="Group_801" data-name="Group 801" transform="translate(0)">
      <path id="Path_712" data-name="Path 712" d="M106.652,49a114.04,114.04,0,0,1-21.836-9A1.176,1.176,0,0,0,83.7,40a112.683,112.683,0,0,1-21.836,9A1.208,1.208,0,0,0,61,50.168V60.3A33.321,33.321,0,0,0,71.3,84.776a37.666,37.666,0,0,0,8.035,5.982,21.413,21.413,0,0,0,4.7,1.988,1.176,1.176,0,0,0,.433,0,21.413,21.413,0,0,0,4.7-1.988,37.681,37.681,0,0,0,8.035-5.982A33.321,33.321,0,0,0,107.512,60.3V50.165A1.209,1.209,0,0,0,106.652,49Zm-1.526,11.3A30.69,30.69,0,0,1,95.552,83.03a35.255,35.255,0,0,1-7.517,5.6,21.016,21.016,0,0,1-3.78,1.687,21.011,21.011,0,0,1-3.78-1.687,35.258,35.258,0,0,1-7.517-5.6A30.69,30.69,0,0,1,63.383,60.3V51.074a115.078,115.078,0,0,0,20.874-8.633,116.458,116.458,0,0,0,20.869,8.629V60.3Z" transform="translate(-60.998 -39.861)" fill="#1c1c1c"/>
    </g>
  </g>
  <g id="Group_804" data-name="Group 804" transform="translate(15.467 42.966)">
    <g id="Group_803" data-name="Group 803" transform="translate(0)">
      <path id="Path_713" data-name="Path 713" d="M157.575,355.254l-.024-.026a1.212,1.212,0,0,0-1.8,1.628l.024.026a1.212,1.212,0,0,0,1.8-1.628Z" transform="translate(-155.443 -354.833)" fill="#1c1c1c"/>
    </g>
  </g>
  <g id="Group_806" data-name="Group 806" transform="translate(17.88 45.418)">
    <g id="Group_805" data-name="Group 805" transform="translate(0)">
      <path id="Path_714" data-name="Path 714" d="M182.025,378.571a31.587,31.587,0,0,1-4.179-3.157,1.212,1.212,0,1,0-1.616,1.808,34.012,34.012,0,0,0,4.5,3.4,1.212,1.212,0,1,0,1.294-2.05Z" transform="translate(-175.826 -375.106)" fill="#1c1c1c"/>
    </g>
  </g>
  <g id="Group_825" data-name="Group 825" transform="translate(19.07 22)">
    <line id="Line_123" data-name="Line 123" x2="7" y2="7" transform="translate(0 8)" fill="none" stroke="#1c1c1c" stroke-linecap="round" stroke-width="2.5"/>
    <line id="Line_124" data-name="Line 124" x1="13" y2="15" transform="translate(7)" fill="none" stroke="#1c1c1c" stroke-linecap="round" stroke-width="2.5"/>
  </g>
</svg>
