<svg xmlns="http://www.w3.org/2000/svg" width="64" height="64" viewBox="0 0 64 64"><defs><style>.a{fill:#1c1c1c;stroke:#1c1c1c;stroke-width:2px;}</style></defs><g transform="translate(1 1)"><path class="a" d="M70.509,63.542l-11.783-11.7a1.134,1.134,0,0,0-.8-.329h0a1.137,1.137,0,0,0-.8.329l-1.933,1.923-3.478-3.456a24.538,24.538,0,0,0,6.855-17.013,24.838,24.838,0,1,0-8.483,18.569L53.6,55.35l-1.619,1.61a1.118,1.118,0,0,0,0,1.588l11.782,11.7a1.136,1.136,0,0,0,1.6,0l5.15-5.121a1.117,1.117,0,0,0,0-1.588ZM11.1,33.293A22.607,22.607,0,1,1,33.706,55.761,22.563,22.563,0,0,1,11.1,33.293ZM64.559,67.87,54.376,57.753l3.553-3.533L68.112,64.337Z" transform="translate(-8.84 -8.58)"/></g></svg>