<svg xmlns="http://www.w3.org/2000/svg" width="24" height="24" viewBox="0 0 24 24"><defs><clipPath id="jtm9a"><path fill="#fff" d="M0 1c0-.5.5-1 1-1h22c.5 0 1 .5 1 1v22c0 .5-.5 1-1 1H1c-.5 0-1-.5-1-1z"/></clipPath><linearGradient id="jtm9b" x1="24.76" x2="3.4" y1="4.73" y2="27.15" gradientUnits="userSpaceOnUse"><stop offset="0" stop-color="#2aabe3"/><stop offset="1" stop-color="#2384b3"/></linearGradient></defs><g><g><path fill="#fff" d="M0 1c0-.5.5-1 1-1h22c.5 0 1 .5 1 1v22c0 .5-.5 1-1 1H1c-.5 0-1-.5-1-1z"/><path fill="none" stroke="#2aabe3" stroke-miterlimit="20" stroke-width="2" d="M0 1c0-.5.5-1 1-1h22c.5 0 1 .5 1 1v22c0 .5-.5 1-1 1H1c-.5 0-1-.5-1-1z" clip-path="url(&quot;#jtm9a&quot;)"/></g><g><path fill="url(#jtm9b)" d="M0 1c0-.5.5-1 1-1h22c.5 0 1 .5 1 1v22c0 .5-.5 1-1 1H1c-.5 0-1-.5-1-1z"/></g></g></svg>