<svg xmlns="http://www.w3.org/2000/svg" width="24" height="24" viewBox="0 0 24 24"><defs><clipPath id="snjra"><path fill="#fff" d="M0 1c0-.5.5-1 1-1h22c.5 0 1 .5 1 1v22c0 .5-.5 1-1 1H1c-.5 0-1-.5-1-1z"/></clipPath><linearGradient id="snjrb" x1="16.25" x2="9.13" y1="9.58" y2="17.05" gradientUnits="userSpaceOnUse"><stop offset="0" stop-color="#2aabe3"/><stop offset="1" stop-color="#2384b3"/></linearGradient></defs><g><g><path fill="none" stroke="#2aabe3" stroke-miterlimit="20" stroke-width="2" d="M0 1c0-.5.5-1 1-1h22c.5 0 1 .5 1 1v22c0 .5-.5 1-1 1H1c-.5 0-1-.5-1-1z" clip-path="url(&quot;#snjra&quot;)"/></g><g><path fill="url(#snjrb)" d="M8 9c0-.5.5-1 1-1h6c.5 0 1 .5 1 1v6c0 .5-.5 1-1 1H9c-.5 0-1-.5-1-1z"/></g></g></svg>