<svg xmlns="http://www.w3.org/2000/svg" width="22" height="26" viewBox="0 0 22 26"><g><g><g opacity="1"><path fill="#2aabe3" d="M18.47 7.298H3.522c-.775 0-1.404-.583-1.404-1.301 0-.719.629-1.301 1.404-1.301H18.47c.776 0 1.405.582 1.405 1.3 0 .72-.63 1.302-1.405 1.302zm-.274 15.11c-.003.858-.752 1.553-1.678 1.555H5.474c-.925-.002-1.675-.697-1.678-1.555V8.335h14.406v14.073zM7.846 2.146c0-.06.053-.109.118-.11h6.076c.064.001.117.05.117.11v1.513h-6.31zm7.424 1.508V2.146c0-.633-.553-1.146-1.236-1.146H7.958c-.682 0-1.236.513-1.236 1.146v1.513h-3.2c-1.231 0-2.283.824-2.488 1.949-.204 1.125.497 2.222 1.66 2.597a.404.404 0 0 0-.017.114v14.09c0 1.43 1.253 2.59 2.797 2.59h11.05c1.544 0 2.796-1.16 2.797-2.59V8.318a.368.368 0 0 0-.017-.114c1.164-.376 1.865-1.476 1.66-2.602-.207-1.126-1.26-1.95-2.494-1.95z"/><path fill="none" stroke="#2aabe3" stroke-miterlimit="20" stroke-width=".3" d="M18.47 7.298H3.522c-.775 0-1.404-.583-1.404-1.301 0-.719.629-1.301 1.404-1.301H18.47c.776 0 1.405.582 1.405 1.3 0 .72-.63 1.302-1.405 1.302zm-.274 15.11c-.003.858-.752 1.553-1.678 1.555H5.474c-.925-.002-1.675-.697-1.678-1.555V8.335h14.406v14.073zM7.846 2.146c0-.06.053-.109.118-.11h6.076c.064.001.117.05.117.11v1.513h-6.31zm7.424 1.508V2.146c0-.633-.553-1.146-1.236-1.146H7.958c-.682 0-1.236.513-1.236 1.146v1.513h-3.2c-1.231 0-2.283.824-2.488 1.949-.204 1.125.497 2.222 1.66 2.597a.404.404 0 0 0-.017.114v14.09c0 1.43 1.253 2.59 2.797 2.59h11.05c1.544 0 2.796-1.16 2.797-2.59V8.318a.368.368 0 0 0-.017-.114c1.164-.376 1.865-1.476 1.66-2.602-.207-1.126-1.26-1.95-2.494-1.95z"/></g></g></g></svg>
