<svg xmlns="http://www.w3.org/2000/svg" width="24" height="19" viewBox="0 0 24 19"><g><g><g opacity="1"><path fill="#fff" d="M24 2.254c-.873.43-1.854.644-2.836.752.982-.644 1.745-1.503 2.181-2.684-.981.537-1.963.966-3.163 1.18C19.309.537 18 0 16.582 0c-2.727 0-4.909 2.147-4.909 4.83 0 .43 0 .752.11 1.074C7.745 5.689 4.145 3.757 1.636.859 1.2 1.609.982 2.36.982 3.327c0 1.718.873 3.113 2.182 3.972a3.98 3.98 0 0 1-2.182-.644v.107c0 2.362 1.637 4.294 3.927 4.724-.436.107-.873.214-1.309.214-.327 0-.654 0-.873-.107.655 1.932 2.4 3.328 4.582 3.328-1.636 1.288-3.818 2.04-6.11 2.04-.435 0-.763 0-1.199-.108C2.182 18.25 4.691 19 7.527 19c9.055 0 13.964-7.3 13.964-13.74v-.644c1.09-.537 1.854-1.395 2.509-2.362z"/></g></g></g></svg>
