<svg xmlns="http://www.w3.org/2000/svg" width="103" height="70" viewBox="0 0 103 70"><g><g><g opacity=".5"><path fill="#2aabe3" d="M59.091 56.312l.002-22.053h7.463L52.604 20.306 38.651 34.26h7.465v22.053z"/></g><g opacity="1"><path fill="#1c1c1c" d="M59.037 32.69a1.6 1.6 0 0 0-1.596 1.603l-.002 20.348h-9.663V34.294a1.6 1.6 0 0 0-1.596-1.604h-3.541l9.969-10.017 9.97 10.017h-3.541zm-5.3-13.42a1.592 1.592 0 0 0-2.258 0L37.656 33.16a1.61 1.61 0 0 0-.346 1.747c.247.6.829.99 1.474.99h5.8v20.348a1.6 1.6 0 0 0 1.596 1.604h12.855a1.6 1.6 0 0 0 1.596-1.603l.002-20.348h5.798c.645 0 1.228-.391 1.475-.99.247-.6.11-1.29-.346-1.748zM81.23 66.793H21.77c-10.243 0-18.576-8.372-18.576-18.664 0-8.864 6.27-16.56 14.907-18.298a1.601 1.601 0 0 0 1.254-1.266c1.69-8.739 9.358-15.082 18.23-15.082 1.367 0 2.746.156 4.1.462a1.591 1.591 0 0 0 1.651-.635c4.478-6.325 11.757-10.1 19.472-10.1 13.166 0 23.878 10.761 23.878 23.99 0 .59-.022 1.193-.066 1.791a1.604 1.604 0 0 0 1.04 1.623c7.266 2.693 12.149 9.731 12.149 17.516 0 10.29-8.334 18.663-18.577 18.663zM89.878 27.2C89.878 12.202 77.734 0 62.806 0c-8.397 0-16.34 3.946-21.451 10.607a21.69 21.69 0 0 0-3.77-.333c-10.045 0-18.772 6.938-21.14 16.644C6.856 29.34 0 38.095 0 48.128 0 60.188 9.765 70 21.769 70H81.23C93.235 70 103 60.188 103 48.128c0-8.722-5.232-16.646-13.136-20.082a27.8 27.8 0 0 0 .014-.847z"/></g></g></g></svg>