<svg xmlns="http://www.w3.org/2000/svg" width="32" height="22" viewBox="0 0 32 22"><g><g opacity="1"><g opacity=".5"><path fill="#2aabe3" d="M18.402 17.75v-7.01h2.373L16.34 6.305l-4.435 4.435h2.373v7.01z"/></g><g><path fill="#1c1c1c" d="M18.342 10.274a.5.5 0 0 0-.496.504l-.001 6.395h-3.002v-6.395a.5.5 0 0 0-.496-.504h-1.1l3.097-3.148 3.097 3.148h-1.1zm-1.647-4.217a.492.492 0 0 0-.701 0l-4.295 4.365a.51.51 0 0 0-.108.549.496.496 0 0 0 .459.311h1.801v6.395a.5.5 0 0 0 .496.504h3.994a.5.5 0 0 0 .496-.504v-6.395h1.802c.2 0 .381-.123.458-.311a.51.51 0 0 0-.108-.55zM6.763 20.992c-3.182 0-5.771-2.632-5.771-5.866 0-2.786 1.948-5.205 4.631-5.75a.5.5 0 0 0 .39-.399c.525-2.746 2.907-4.74 5.664-4.74.424 0 .853.05 1.273.145a.492.492 0 0 0 .513-.2 7.402 7.402 0 0 1 6.05-3.174c4.09 0 7.418 3.383 7.418 7.54 0 .186-.007.375-.02.563a.504.504 0 0 0 .323.51c2.257.846 3.774 3.059 3.774 5.505 0 3.234-2.589 5.866-5.771 5.866zM27.92 8.814a8.83 8.83 0 0 0 .004-.266C27.923 3.835 24.15 0 19.513 0a8.385 8.385 0 0 0-6.665 3.334 6.663 6.663 0 0 0-1.171-.105c-3.121 0-5.832 2.18-6.568 5.23C2.13 9.222 0 11.974 0 15.127 0 18.916 3.034 22 6.763 22h18.474C28.967 22 32 18.916 32 15.126c0-2.741-1.626-5.232-4.081-6.312z"/></g></g></g></svg>